<svg xmlns="http://www.w3.org/2000/svg" xmlns:xlink="http://www.w3.org/1999/xlink" width="1366" zoomAndPan="magnify" viewBox="0 0 1024.5 576" height="768" preserveAspectRatio="xMidYMid meet" version="1.0"><defs><clipPath id="c085c80a0d"><path d="M 334 57.710938 L 690 57.710938 L 690 397 L 334 397 Z M 334 57.710938 " clip-rule="nonzero"/></clipPath></defs><path fill="#fede00" d="M 511.996094 455.773438 C 445.191406 455.773438 367.175781 438.113281 367.175781 388.335938 C 367.175781 338.558594 445.191406 320.894531 511.996094 320.894531 C 578.800781 320.894531 656.816406 338.558594 656.816406 388.335938 C 656.816406 438.113281 578.800781 455.773438 511.996094 455.773438 Z M 511.996094 455.773438 " fill-opacity="1" fill-rule="nonzero"/><path fill="#000000" d="M 511.996094 325.828125 C 576.527344 325.828125 651.882812 342.199219 651.882812 388.335938 C 651.882812 434.46875 576.527344 450.839844 511.996094 450.839844 C 447.46875 450.839844 372.113281 434.46875 372.113281 388.335938 C 372.113281 342.199219 447.46875 325.828125 511.996094 325.828125 Z M 511.996094 315.960938 C 439.601562 315.960938 362.242188 334.972656 362.242188 388.335938 C 362.242188 441.699219 439.601562 460.710938 511.996094 460.710938 C 584.390625 460.710938 661.75 441.699219 661.75 388.335938 C 661.75 334.972656 584.390625 315.960938 511.996094 315.960938 Z M 511.996094 315.960938 " fill-opacity="1" fill-rule="nonzero"/><path fill="#0fa577" d="M 511.996094 429.457031 C 454.550781 429.457031 393.496094 415.042969 393.496094 388.335938 C 393.496094 361.625 454.550781 347.210938 511.996094 347.210938 C 569.441406 347.210938 630.496094 361.625 630.496094 388.335938 C 630.496094 415.042969 569.441406 429.457031 511.996094 429.457031 Z M 511.996094 429.457031 " fill-opacity="1" fill-rule="nonzero"/><path fill="#000000" d="M 511.996094 352.148438 C 574.714844 352.148438 625.5625 368.347656 625.5625 388.335938 C 625.5625 408.320312 574.714844 424.523438 511.996094 424.523438 C 449.277344 424.523438 398.429688 408.320312 398.429688 388.335938 C 398.429688 368.347656 449.277344 352.148438 511.996094 352.148438 Z M 511.996094 342.277344 C 452.546875 342.277344 388.5625 356.691406 388.5625 388.335938 C 388.5625 419.980469 452.546875 434.390625 511.996094 434.390625 C 571.445312 434.390625 635.433594 419.980469 635.433594 388.335938 C 635.433594 356.691406 571.445312 342.277344 511.996094 342.277344 Z M 511.996094 342.277344 " fill-opacity="1" fill-rule="nonzero"/><path stroke-linecap="round" transform="matrix(3.289773, 0, 0, 3.289773, 511.996598, 256.743662)" fill-opacity="1" fill="#ff1d25" fill-rule="nonzero" stroke-linejoin="round" d="M 0.00103401 40.000415 C 5.927308 31.11041 11.859518 22.222781 17.792916 13.337526 C 22.78115 5.865268 28.572061 -2.038013 28.572061 -11.429097 C 28.572061 -27.214286 15.787411 -40.000124 0.00103401 -40.000124 C -15.785343 -40.000124 -28.572368 -27.214286 -28.572368 -11.429097 C -28.572368 -2.038013 -22.781457 5.865268 -17.792036 13.337526 C -11.858638 22.222781 -5.926427 31.11041 0.00103401 40.000415 Z M 0.00103401 40.000415 " stroke="#000000" stroke-width="3" stroke-opacity="1" stroke-miterlimit="4"/><path fill="#fdf4f4" d="M 549.59375 219.144531 C 549.59375 239.910156 532.765625 256.742188 512 256.742188 C 491.234375 256.742188 474.402344 239.910156 474.402344 219.144531 C 474.402344 198.378906 491.234375 181.550781 512 181.550781 C 532.765625 181.550781 549.59375 198.378906 549.59375 219.144531 Z M 549.59375 219.144531 " fill-opacity="1" fill-rule="nonzero"/><g clip-path="url(#c085c80a0d)"><path stroke-linecap="butt" transform="matrix(3.289773, 0, 0, 3.289773, 511.996598, 219.148134)" fill="none" stroke-linejoin="miter" d="M 11.428495 -0.00109524 C 11.428495 6.311081 6.31321 11.427553 0.00103401 11.427553 C -6.311142 11.427553 -11.427614 6.311081 -11.427614 -0.00109524 C -11.427614 -6.313271 -6.311142 -11.428556 0.00103401 -11.428556 C 6.31321 -11.428556 11.428495 -6.313271 11.428495 -0.00109524 Z M 11.428495 -0.00109524 " stroke="#000000" stroke-width="3" stroke-opacity="1" stroke-miterlimit="10"/></g></svg>