<svg xmlns="http://www.w3.org/2000/svg" xmlns:xlink="http://www.w3.org/1999/xlink" width="1920" zoomAndPan="magnify" viewBox="0 0 1440 809.999993" height="1080" preserveAspectRatio="xMidYMid meet" version="1.0"><defs><clipPath id="a7f97deaba"><path d="M 480.851562 0 L 692.351562 0 L 692.351562 63.621094 L 480.851562 63.621094 Z M 480.851562 0 " clip-rule="nonzero"/></clipPath><clipPath id="700c9e5f57"><path d="M 505 0 L 692.351562 0 L 692.351562 39 L 505 39 Z M 505 0 " clip-rule="nonzero"/></clipPath><clipPath id="6a37f607d3"><path d="M 482 0 L 692.351562 0 L 692.351562 63 L 482 63 Z M 482 0 " clip-rule="nonzero"/></clipPath><clipPath id="191a17c1ea"><path d="M 529 0 L 692.351562 0 L 692.351562 16 L 529 16 Z M 529 0 " clip-rule="nonzero"/></clipPath><clipPath id="0723689d15"><path d="M 650.035156 88.496094 L 802.285156 88.496094 L 802.285156 189.746094 L 650.035156 189.746094 Z M 650.035156 88.496094 " clip-rule="nonzero"/></clipPath><clipPath id="7c2ecef7d4"><path d="M 726 88.496094 L 778 88.496094 L 778 140 L 726 140 Z M 726 88.496094 " clip-rule="nonzero"/></clipPath><clipPath id="411dab19c9"><path d="M 726 88.496094 L 801 88.496094 L 801 163 L 726 163 Z M 726 88.496094 " clip-rule="nonzero"/></clipPath><clipPath id="73372b2192"><path d="M 726 88.496094 L 755 88.496094 L 755 117 L 726 117 Z M 726 88.496094 " clip-rule="nonzero"/></clipPath><clipPath id="777d02988e"><path d="M 674 138 L 727 138 L 727 189.746094 L 674 189.746094 Z M 674 138 " clip-rule="nonzero"/></clipPath><clipPath id="3ce01828db"><path d="M 651 115 L 727 115 L 727 189.746094 L 651 189.746094 Z M 651 115 " clip-rule="nonzero"/></clipPath><clipPath id="78a8068e88"><path d="M 698 161 L 727 161 L 727 189.746094 L 698 189.746094 Z M 698 161 " clip-rule="nonzero"/></clipPath><clipPath id="4af697faa4"><path d="M 481 291.304688 L 633.21875 291.304688 L 633.21875 392.296875 L 481 392.296875 Z M 481 291.304688 " clip-rule="nonzero"/></clipPath><clipPath id="975aeb5cd0"><path d="M 557 341 L 609 341 L 609 392.296875 L 557 392.296875 Z M 557 341 " clip-rule="nonzero"/></clipPath><clipPath id="1de8e75ec0"><path d="M 557 318 L 632 318 L 632 392.296875 L 557 392.296875 Z M 557 318 " clip-rule="nonzero"/></clipPath><clipPath id="280b77afe3"><path d="M 557 364 L 586 364 L 586 392.296875 L 557 392.296875 Z M 557 364 " clip-rule="nonzero"/></clipPath><clipPath id="e66d56277e"><path d="M 505 291.304688 L 558 291.304688 L 558 343 L 505 343 Z M 505 291.304688 " clip-rule="nonzero"/></clipPath><clipPath id="ee45ea6314"><path d="M 482 291.304688 L 558 291.304688 L 558 366 L 482 366 Z M 482 291.304688 " clip-rule="nonzero"/></clipPath><clipPath id="dc62e1e638"><path d="M 529 291.304688 L 558 291.304688 L 558 320 L 529 320 Z M 529 291.304688 " clip-rule="nonzero"/></clipPath><clipPath id="6fe024ac06"><path d="M 726.167969 12.820312 L 802.667969 12.820312 L 802.667969 89.320312 L 726.167969 89.320312 Z M 726.167969 12.820312 " clip-rule="nonzero"/></clipPath><clipPath id="9797e7d493"><path d="M 726.167969 37 L 778 37 L 778 89.320312 L 726.167969 89.320312 Z M 726.167969 37 " clip-rule="nonzero"/></clipPath><clipPath id="c0932c8555"><path d="M 726.167969 14 L 802 14 L 802 89.320312 L 726.167969 89.320312 Z M 726.167969 14 " clip-rule="nonzero"/></clipPath><clipPath id="50dbd0c97f"><path d="M 726.167969 61 L 755 61 L 755 89.320312 L 726.167969 89.320312 Z M 726.167969 61 " clip-rule="nonzero"/></clipPath><clipPath id="2fe3d5db3a"><path d="M 480.867188 215.203125 L 557.085938 215.203125 L 557.085938 291.703125 L 480.867188 291.703125 Z M 480.867188 215.203125 " clip-rule="nonzero"/></clipPath><clipPath id="18ba6b0e98"><path d="M 505 239 L 557.085938 239 L 557.085938 291.703125 L 505 291.703125 Z M 505 239 " clip-rule="nonzero"/></clipPath><clipPath id="d8c963f7ea"><path d="M 482 216 L 557.085938 216 L 557.085938 291.703125 L 482 291.703125 Z M 482 216 " clip-rule="nonzero"/></clipPath><clipPath id="093a48679f"><path d="M 528 263 L 557.085938 263 L 557.085938 291.703125 L 528 291.703125 Z M 528 263 " clip-rule="nonzero"/></clipPath><clipPath id="f24af5346d"><path d="M 624.410156 189.808594 L 700.910156 189.808594 L 700.910156 266.050781 L 624.410156 266.050781 Z M 624.410156 189.808594 " clip-rule="nonzero"/></clipPath><clipPath id="63db417d7d"><path d="M 624.410156 189.808594 L 677 189.808594 L 677 242 L 624.410156 242 Z M 624.410156 189.808594 " clip-rule="nonzero"/></clipPath><clipPath id="17421bd823"><path d="M 624.410156 189.808594 L 700 189.808594 L 700 265 L 624.410156 265 Z M 624.410156 189.808594 " clip-rule="nonzero"/></clipPath><clipPath id="88e882a8a8"><path d="M 624.410156 189.808594 L 653 189.808594 L 653 218 L 624.410156 218 Z M 624.410156 189.808594 " clip-rule="nonzero"/></clipPath><clipPath id="9e9639752f"><path d="M 582.484375 392.304688 L 658.726562 392.304688 L 658.726562 468.546875 L 582.484375 468.546875 Z M 582.484375 392.304688 " clip-rule="nonzero"/></clipPath><clipPath id="93aaf64545"><path d="M 607 392.304688 L 658.726562 392.304688 L 658.726562 444 L 607 444 Z M 607 392.304688 " clip-rule="nonzero"/></clipPath><clipPath id="6d77b437c4"><path d="M 583 392.304688 L 658.726562 392.304688 L 658.726562 468 L 583 468 Z M 583 392.304688 " clip-rule="nonzero"/></clipPath><clipPath id="2c047acd31"><path d="M 630 392.304688 L 658.726562 392.304688 L 658.726562 421 L 630 421 Z M 630 392.304688 " clip-rule="nonzero"/></clipPath><clipPath id="dc41d6c5b9"><path d="M 556.851562 215.203125 L 624.351562 215.203125 L 624.351562 266.203125 L 556.851562 266.203125 Z M 556.851562 215.203125 " clip-rule="nonzero"/></clipPath><clipPath id="0bd7847543"><path d="M 556.851562 239 L 624.351562 239 L 624.351562 242 L 556.851562 242 Z M 556.851562 239 " clip-rule="nonzero"/></clipPath><clipPath id="d3e0842016"><path d="M 556.851562 216 L 624.351562 216 L 624.351562 218 L 556.851562 218 Z M 556.851562 216 " clip-rule="nonzero"/></clipPath><clipPath id="10fdb362d1"><path d="M 556.851562 263 L 624.351562 263 L 624.351562 265 L 556.851562 265 Z M 556.851562 263 " clip-rule="nonzero"/></clipPath><clipPath id="55e60b419e"><path d="M 658.542969 417.742188 L 726.042969 417.742188 L 726.042969 468.742188 L 658.542969 468.742188 Z M 658.542969 417.742188 " clip-rule="nonzero"/></clipPath><clipPath id="432385e795"><path d="M 658.542969 442 L 726.042969 442 L 726.042969 444 L 658.542969 444 Z M 658.542969 442 " clip-rule="nonzero"/></clipPath><clipPath id="7b43d5c59b"><path d="M 658.542969 419 L 726.042969 419 L 726.042969 421 L 658.542969 421 Z M 658.542969 419 " clip-rule="nonzero"/></clipPath><clipPath id="e5edb8c665"><path d="M 658.542969 466 L 726.042969 466 L 726.042969 468 L 658.542969 468 Z M 658.542969 466 " clip-rule="nonzero"/></clipPath><clipPath id="f09494a69f"><path d="M 667.769531 12.820312 L 727.019531 12.820312 L 727.019531 63.820312 L 667.769531 63.820312 Z M 667.769531 12.820312 " clip-rule="nonzero"/></clipPath><clipPath id="b52d8e0ada"><path d="M 667.769531 37 L 727.019531 37 L 727.019531 40 L 667.769531 40 Z M 667.769531 37 " clip-rule="nonzero"/></clipPath><clipPath id="d5a7dc8c84"><path d="M 667.769531 14 L 727.019531 14 L 727.019531 16 L 667.769531 16 Z M 667.769531 14 " clip-rule="nonzero"/></clipPath><clipPath id="6f8b058f0e"><path d="M 667.769531 61 L 727.019531 61 L 727.019531 63 L 667.769531 63 Z M 667.769531 61 " clip-rule="nonzero"/></clipPath><clipPath id="ab91b1685c"><path d="M 650 493.421875 L 802.203125 493.421875 L 802.203125 594.671875 L 650 594.671875 Z M 650 493.421875 " clip-rule="nonzero"/></clipPath><clipPath id="165b1c4297"><path d="M 726 493.421875 L 778 493.421875 L 778 545 L 726 545 Z M 726 493.421875 " clip-rule="nonzero"/></clipPath><clipPath id="bd9b4b834f"><path d="M 726 493.421875 L 801 493.421875 L 801 568 L 726 568 Z M 726 493.421875 " clip-rule="nonzero"/></clipPath><clipPath id="f2bcee5be8"><path d="M 726 493.421875 L 755 493.421875 L 755 522 L 726 522 Z M 726 493.421875 " clip-rule="nonzero"/></clipPath><clipPath id="529f435c43"><path d="M 674 543 L 727 543 L 727 594.671875 L 674 594.671875 Z M 674 543 " clip-rule="nonzero"/></clipPath><clipPath id="e15c391028"><path d="M 651 520 L 727 520 L 727 594.671875 L 651 594.671875 Z M 651 520 " clip-rule="nonzero"/></clipPath><clipPath id="197a7eb0b3"><path d="M 698 566 L 727 566 L 727 594.671875 L 698 594.671875 Z M 698 566 " clip-rule="nonzero"/></clipPath><clipPath id="a75d6496b9"><path d="M 480.886719 696.226562 L 633.136719 696.226562 L 633.136719 797.21875 L 480.886719 797.21875 Z M 480.886719 696.226562 " clip-rule="nonzero"/></clipPath><clipPath id="0e8f3a764e"><path d="M 557 746 L 609 746 L 609 797.21875 L 557 797.21875 Z M 557 746 " clip-rule="nonzero"/></clipPath><clipPath id="182c9e99eb"><path d="M 557 723 L 632 723 L 632 797.21875 L 557 797.21875 Z M 557 723 " clip-rule="nonzero"/></clipPath><clipPath id="2000b512d8"><path d="M 557 769 L 586 769 L 586 797.21875 L 557 797.21875 Z M 557 769 " clip-rule="nonzero"/></clipPath><clipPath id="e2aa8e9610"><path d="M 505 696.226562 L 558 696.226562 L 558 748 L 505 748 Z M 505 696.226562 " clip-rule="nonzero"/></clipPath><clipPath id="d206a54347"><path d="M 482 696.226562 L 558 696.226562 L 558 771 L 482 771 Z M 482 696.226562 " clip-rule="nonzero"/></clipPath><clipPath id="3820583161"><path d="M 528 696.226562 L 558 696.226562 L 558 725 L 528 725 Z M 528 696.226562 " clip-rule="nonzero"/></clipPath><clipPath id="61fb5e8561"><path d="M 726.089844 417.742188 L 802.589844 417.742188 L 802.589844 494.242188 L 726.089844 494.242188 Z M 726.089844 417.742188 " clip-rule="nonzero"/></clipPath><clipPath id="740b0546ef"><path d="M 726.089844 442 L 778 442 L 778 494.242188 L 726.089844 494.242188 Z M 726.089844 442 " clip-rule="nonzero"/></clipPath><clipPath id="c815710bdb"><path d="M 726.089844 419 L 802 419 L 802 494.242188 L 726.089844 494.242188 Z M 726.089844 419 " clip-rule="nonzero"/></clipPath><clipPath id="094d353d77"><path d="M 726.089844 466 L 755 466 L 755 494.242188 L 726.089844 494.242188 Z M 726.089844 466 " clip-rule="nonzero"/></clipPath><clipPath id="0791deba7d"><path d="M 480.789062 620.125 L 557.007812 620.125 L 557.007812 696.625 L 480.789062 696.625 Z M 480.789062 620.125 " clip-rule="nonzero"/></clipPath><clipPath id="a5881ff50f"><path d="M 505 644 L 557.007812 644 L 557.007812 696.625 L 505 696.625 Z M 505 644 " clip-rule="nonzero"/></clipPath><clipPath id="1f79066592"><path d="M 482 621 L 557.007812 621 L 557.007812 696.625 L 482 696.625 Z M 482 621 " clip-rule="nonzero"/></clipPath><clipPath id="a58b66e325"><path d="M 528 668 L 557.007812 668 L 557.007812 696.625 L 528 696.625 Z M 528 668 " clip-rule="nonzero"/></clipPath><clipPath id="5b9bf193a3"><path d="M 624.332031 594.730469 L 700.832031 594.730469 L 700.832031 670.972656 L 624.332031 670.972656 Z M 624.332031 594.730469 " clip-rule="nonzero"/></clipPath><clipPath id="4e19800ab7"><path d="M 624.332031 594.730469 L 677 594.730469 L 677 647 L 624.332031 647 Z M 624.332031 594.730469 " clip-rule="nonzero"/></clipPath><clipPath id="ce87eb7340"><path d="M 624.332031 594.730469 L 700 594.730469 L 700 670 L 624.332031 670 Z M 624.332031 594.730469 " clip-rule="nonzero"/></clipPath><clipPath id="e686e8db64"><path d="M 624.332031 594.730469 L 653 594.730469 L 653 623 L 624.332031 623 Z M 624.332031 594.730469 " clip-rule="nonzero"/></clipPath><clipPath id="45f1a682f0"><path d="M 556.773438 620.125 L 624.273438 620.125 L 624.273438 671.125 L 556.773438 671.125 Z M 556.773438 620.125 " clip-rule="nonzero"/></clipPath><clipPath id="1fc26a1f45"><path d="M 556.773438 644 L 624.273438 644 L 624.273438 647 L 556.773438 647 Z M 556.773438 644 " clip-rule="nonzero"/></clipPath><clipPath id="49d52d8776"><path d="M 556.773438 621 L 624.273438 621 L 624.273438 623 L 556.773438 623 Z M 556.773438 621 " clip-rule="nonzero"/></clipPath><clipPath id="ad8afd2957"><path d="M 556.773438 668 L 624.273438 668 L 624.273438 670 L 556.773438 670 Z M 556.773438 668 " clip-rule="nonzero"/></clipPath></defs><g clip-path="url(#a7f97deaba)"><path fill="#525252" d="M 482.429688 2.023438 C 483.398438 6.941406 484.855469 11.773438 486.769531 16.410156 C 490.589844 25.683594 496.242188 34.152344 503.273438 41.214844 C 510.304688 48.28125 518.730469 53.960938 527.964844 57.800781 C 532.578125 59.722656 537.386719 61.1875 542.285156 62.160156 C 547.101562 63.121094 552.003906 63.601562 556.875 63.621094 L 556.875 63.625 L 692.230469 63.625 L 692.230469 12.625 L 557.109375 12.625 C 553.722656 12.613281 550.460938 11.960938 547.40625 10.691406 C 544.359375 9.425781 541.53125 7.53125 539.164062 5.152344 C 536.800781 2.773438 534.914062 -0.0625 533.65625 -3.128906 C 532.390625 -6.191406 531.742188 -9.472656 531.730469 -12.878906 L 480.972656 -12.878906 C 480.976562 -7.90625 481.460938 -2.898438 482.429688 2.023438 " fill-opacity="1" fill-rule="nonzero"/></g><g clip-path="url(#700c9e5f57)"><path fill="#f7f7f7" d="M 520.722656 23.6875 C 525.484375 28.472656 531.1875 32.3125 537.414062 34.898438 C 543.566406 37.46875 550.21875 38.796875 556.875 38.828125 L 556.875 38.832031 L 692.230469 38.832031 L 692.230469 37.414062 L 557.109375 37.414062 C 550.558594 37.414062 544.007812 36.117188 537.957031 33.589844 C 531.898438 31.074219 526.351562 27.339844 521.71875 22.683594 C 517.085938 18.027344 513.371094 12.453125 510.863281 6.371094 C 508.347656 0.289062 507.0625 -6.292969 507.058594 -12.878906 L 505.648438 -12.878906 C 505.648438 -6.109375 506.972656 0.660156 509.558594 6.914062 C 512.136719 13.167969 515.957031 18.898438 520.722656 23.6875 " fill-opacity="1" fill-rule="nonzero"/></g><g clip-path="url(#6a37f607d3)"><path fill="#f7f7f7" d="M 483.929688 1.722656 C 484.878906 6.546875 486.304688 11.28125 488.179688 15.820312 C 491.925781 24.910156 497.460938 33.207031 504.355469 40.132812 C 511.246094 47.054688 519.503906 52.621094 528.550781 56.382812 C 533.070312 58.265625 537.78125 59.703125 542.578125 60.65625 C 547.300781 61.59375 552.101562 62.066406 556.875 62.085938 L 692.230469 62.085938 L 692.230469 60.90625 L 557.109375 60.90625 C 552.335938 60.902344 547.53125 60.4375 542.804688 59.496094 C 538.085938 58.558594 533.445312 57.144531 529 55.292969 C 520.097656 51.589844 511.96875 46.113281 505.183594 39.296875 C 498.402344 32.480469 492.949219 24.316406 489.265625 15.367188 C 487.417969 10.898438 486.015625 6.242188 485.082031 1.496094 C 484.144531 -3.25 483.679688 -8.078125 483.675781 -12.878906 L 482.5 -12.878906 C 482.507812 -8.003906 482.976562 -3.097656 483.929688 1.722656 " fill-opacity="1" fill-rule="nonzero"/></g><g clip-path="url(#191a17c1ea)"><path fill="#f7f7f7" d="M 537.253906 7.074219 C 539.871094 9.699219 542.996094 11.796875 546.371094 13.199219 C 549.679688 14.578125 553.222656 15.296875 556.875 15.335938 L 556.875 15.339844 L 692.230469 15.339844 L 692.230469 14.15625 L 557.109375 14.15625 C 553.527344 14.148438 550.058594 13.457031 546.820312 12.109375 C 543.585938 10.765625 540.59375 8.757812 538.085938 6.238281 C 535.582031 3.71875 533.582031 0.710938 532.242188 -2.539062 C 530.902344 -5.792969 530.214844 -9.273438 530.207031 -12.878906 L 529.03125 -12.878906 C 529.039062 -9.125 529.757812 -5.484375 531.160156 -2.085938 C 532.554688 1.308594 534.640625 4.445312 537.253906 7.074219 " fill-opacity="1" fill-rule="nonzero"/></g><g clip-path="url(#0723689d15)"><path fill="#525252" d="M 702.71875 180.085938 C 703.980469 177.046875 705.863281 174.226562 708.226562 171.867188 C 710.59375 169.507812 713.414062 167.628906 716.460938 166.371094 C 719.511719 165.109375 722.769531 164.460938 726.160156 164.453125 C 731.105469 164.449219 736.085938 163.96875 740.976562 163 C 745.871094 162.035156 750.675781 160.582031 755.285156 158.671875 C 764.507812 154.859375 772.929688 149.222656 779.957031 142.207031 C 786.984375 135.195312 792.628906 126.789062 796.449219 117.582031 C 798.363281 112.980469 799.816406 108.183594 800.785156 103.296875 C 801.753906 98.414062 802.234375 93.445312 802.238281 88.507812 L 751.519531 88.507812 C 751.511719 91.890625 750.859375 95.144531 749.597656 98.1875 C 748.339844 101.226562 746.453125 104.046875 744.089844 106.40625 C 741.726562 108.765625 738.902344 110.648438 735.855469 111.90625 C 732.804688 113.164062 729.546875 113.8125 726.160156 113.824219 C 721.214844 113.828125 716.234375 114.304688 711.339844 115.273438 C 706.449219 116.242188 701.644531 117.695312 697.035156 119.601562 C 687.808594 123.414062 679.390625 129.050781 672.363281 136.066406 C 665.335938 143.078125 659.6875 151.484375 655.867188 160.695312 C 653.957031 165.292969 652.5 170.089844 651.53125 174.976562 C 650.5625 179.859375 650.082031 184.832031 650.078125 189.769531 L 700.800781 189.769531 C 700.808594 186.386719 701.457031 183.132812 702.71875 180.085938 " fill-opacity="1" fill-rule="nonzero"/></g><g clip-path="url(#7c2ecef7d4)"><path fill="#f7f7f7" d="M 761.527344 123.8125 C 756.894531 128.433594 751.351562 132.140625 745.300781 134.640625 C 739.253906 137.148438 732.710938 138.429688 726.160156 138.433594 L 726.160156 139.839844 C 732.890625 139.839844 739.621094 138.519531 745.839844 135.9375 C 752.0625 133.367188 757.761719 129.554688 762.523438 124.804688 C 767.28125 120.054688 771.101562 114.363281 773.675781 108.152344 C 776.257812 101.945312 777.582031 95.226562 777.582031 88.507812 L 776.175781 88.507812 C 776.171875 95.046875 774.886719 101.578125 772.371094 107.617188 C 769.871094 113.65625 766.15625 119.1875 761.527344 123.8125 " fill-opacity="1" fill-rule="nonzero"/></g><g clip-path="url(#411dab19c9)"><path fill="#f7f7f7" d="M 793.953125 116.546875 C 790.273438 125.429688 784.824219 133.535156 778.046875 140.304688 C 771.269531 147.070312 763.144531 152.507812 754.25 156.183594 C 749.804688 158.023438 745.171875 159.425781 740.453125 160.355469 C 735.734375 161.289062 730.929688 161.753906 726.160156 161.757812 L 726.160156 162.929688 C 731.007812 162.925781 735.886719 162.453125 740.679688 161.503906 C 745.476562 160.558594 750.183594 159.136719 754.699219 157.265625 C 763.738281 153.53125 771.988281 148.007812 778.875 141.132812 C 785.761719 134.257812 791.296875 126.023438 795.039062 116.996094 C 796.914062 112.488281 798.339844 107.789062 799.289062 103.003906 C 800.238281 98.21875 800.710938 93.347656 800.710938 88.507812 L 799.539062 88.507812 C 799.535156 93.269531 799.070312 98.066406 798.136719 102.773438 C 797.203125 107.484375 795.796875 112.113281 793.953125 116.546875 " fill-opacity="1" fill-rule="nonzero"/></g><g clip-path="url(#73372b2192)"><path fill="#f7f7f7" d="M 726.160156 116.519531 C 729.894531 116.507812 733.511719 115.792969 736.890625 114.394531 C 740.265625 113 743.386719 110.921875 746 108.3125 C 748.613281 105.703125 750.699219 102.589844 752.09375 99.21875 C 753.492188 95.847656 754.210938 92.234375 754.21875 88.507812 L 753.046875 88.507812 C 753.035156 92.082031 752.347656 95.542969 751.007812 98.769531 C 749.671875 101.996094 747.675781 104.984375 745.171875 107.484375 C 742.664062 109.984375 739.671875 111.980469 736.441406 113.3125 C 733.207031 114.648438 729.742188 115.335938 726.160156 115.347656 L 726.160156 116.519531 " fill-opacity="1" fill-rule="nonzero"/></g><g clip-path="url(#777d02988e)"><path fill="#f7f7f7" d="M 690.792969 154.464844 C 695.425781 149.84375 700.96875 146.136719 707.019531 143.636719 C 713.0625 141.128906 719.609375 139.84375 726.160156 139.839844 L 726.160156 138.433594 C 719.429688 138.4375 712.695312 139.757812 706.476562 142.335938 C 700.257812 144.90625 694.558594 148.71875 689.796875 153.46875 C 685.035156 158.222656 681.21875 163.910156 678.644531 170.121094 C 676.058594 176.328125 674.738281 183.050781 674.734375 189.769531 L 676.144531 189.769531 C 676.144531 183.230469 677.433594 176.695312 679.945312 170.660156 C 682.449219 164.621094 686.164062 159.085938 690.792969 154.464844 " fill-opacity="1" fill-rule="nonzero"/></g><g clip-path="url(#3ce01828db)"><path fill="#f7f7f7" d="M 658.363281 161.726562 C 662.046875 152.84375 667.492188 144.738281 674.269531 137.972656 C 681.050781 131.203125 689.171875 125.769531 698.066406 122.089844 C 702.515625 120.25 707.144531 118.851562 711.867188 117.917969 C 716.582031 116.984375 721.386719 116.519531 726.160156 116.519531 L 726.160156 115.347656 C 721.3125 115.351562 716.429688 115.820312 711.636719 116.769531 C 706.84375 117.714844 702.132812 119.140625 697.617188 121.007812 C 688.578125 124.746094 680.328125 130.269531 673.441406 137.144531 C 666.554688 144.015625 661.023438 152.253906 657.277344 161.277344 C 655.40625 165.785156 653.980469 170.484375 653.03125 175.273438 C 652.082031 180.058594 651.609375 184.929688 651.605469 189.769531 L 652.78125 189.769531 C 652.785156 185.003906 653.246094 180.210938 654.183594 175.5 C 655.117188 170.789062 656.519531 166.164062 658.363281 161.726562 " fill-opacity="1" fill-rule="nonzero"/></g><g clip-path="url(#78a8068e88)"><path fill="#f7f7f7" d="M 701.3125 179.503906 C 702.648438 176.277344 704.644531 173.289062 707.148438 170.789062 C 709.652344 168.289062 712.644531 166.296875 715.875 164.960938 C 719.113281 163.625 722.578125 162.9375 726.160156 162.929688 L 726.160156 161.757812 C 722.425781 161.765625 718.804688 162.480469 715.425781 163.878906 C 712.050781 165.273438 708.929688 167.355469 706.316406 169.960938 C 703.707031 172.570312 701.621094 175.6875 700.226562 179.054688 C 698.828125 182.425781 698.105469 186.039062 698.097656 189.769531 L 699.273438 189.769531 C 699.28125 186.191406 699.96875 182.734375 701.3125 179.503906 " fill-opacity="1" fill-rule="nonzero"/></g><g clip-path="url(#4af697faa4)"><path fill="#525252" d="M 533.652344 300.964844 C 534.914062 304.003906 536.796875 306.824219 539.160156 309.183594 C 541.527344 311.542969 544.347656 313.425781 547.394531 314.683594 C 550.445312 315.941406 553.703125 316.589844 557.09375 316.601562 C 562.039062 316.601562 567.015625 317.085938 571.910156 318.050781 C 576.804688 319.019531 581.609375 320.472656 586.21875 322.378906 C 595.441406 326.191406 603.863281 331.828125 610.890625 338.84375 C 617.914062 345.859375 623.5625 354.261719 627.382812 363.472656 C 629.292969 368.070312 630.75 372.867188 631.71875 377.753906 C 632.6875 382.636719 633.167969 387.609375 633.171875 392.546875 L 582.453125 392.546875 C 582.445312 389.164062 581.792969 385.910156 580.53125 382.863281 C 579.273438 379.824219 577.386719 377.003906 575.023438 374.644531 C 572.660156 372.285156 569.835938 370.40625 566.789062 369.148438 C 563.738281 367.886719 560.480469 367.238281 557.09375 367.230469 C 552.148438 367.226562 547.167969 366.746094 542.273438 365.777344 C 537.382812 364.8125 532.578125 363.359375 527.96875 361.449219 C 518.742188 357.636719 510.320312 352 503.296875 344.984375 C 496.269531 337.972656 490.621094 329.566406 486.800781 320.359375 C 484.890625 315.757812 483.433594 310.960938 482.464844 306.074219 C 481.496094 301.191406 481.015625 296.21875 481.011719 291.285156 L 531.734375 291.285156 C 531.742188 294.667969 532.390625 297.917969 533.652344 300.964844 " fill-opacity="1" fill-rule="nonzero"/></g><g clip-path="url(#975aeb5cd0)"><path fill="#f7f7f7" d="M 592.457031 357.242188 C 587.828125 352.621094 582.28125 348.914062 576.234375 346.414062 C 570.1875 343.90625 563.640625 342.621094 557.09375 342.617188 L 557.09375 341.210938 C 563.824219 341.214844 570.554688 342.535156 576.773438 345.113281 C 582.996094 347.683594 588.695312 351.496094 593.453125 356.246094 C 598.214844 361 602.03125 366.6875 604.609375 372.898438 C 607.191406 379.105469 608.515625 385.828125 608.515625 392.546875 L 607.109375 392.546875 C 607.105469 386.007812 605.820312 379.472656 603.304688 373.4375 C 600.800781 367.398438 597.089844 361.863281 592.457031 357.242188 " fill-opacity="1" fill-rule="nonzero"/></g><g clip-path="url(#1de8e75ec0)"><path fill="#f7f7f7" d="M 624.886719 364.503906 C 621.207031 355.621094 615.757812 347.515625 608.980469 340.75 C 602.203125 333.984375 594.078125 328.546875 585.183594 324.867188 C 580.738281 323.027344 576.105469 321.628906 571.386719 320.695312 C 566.667969 319.761719 561.863281 319.296875 557.09375 319.292969 L 557.09375 318.125 C 561.941406 318.128906 566.820312 318.597656 571.613281 319.546875 C 576.410156 320.492188 581.117188 321.917969 585.632812 323.785156 C 594.671875 327.523438 602.921875 333.046875 609.808594 339.921875 C 616.695312 346.792969 622.230469 355.03125 625.972656 364.054688 C 627.84375 368.5625 629.273438 373.261719 630.21875 378.050781 C 631.171875 382.835938 631.640625 387.707031 631.644531 392.546875 L 630.472656 392.546875 C 630.46875 387.78125 630.003906 382.988281 629.070312 378.277344 C 628.136719 373.566406 626.730469 368.941406 624.886719 364.503906 " fill-opacity="1" fill-rule="nonzero"/></g><g clip-path="url(#280b77afe3)"><path fill="#f7f7f7" d="M 557.09375 364.535156 C 560.828125 364.542969 564.445312 365.257812 567.824219 366.65625 C 571.199219 368.050781 574.320312 370.132812 576.933594 372.738281 C 579.546875 375.347656 581.628906 378.464844 583.027344 381.832031 C 584.425781 385.203125 585.144531 388.816406 585.152344 392.546875 L 583.976562 392.546875 C 583.96875 388.96875 583.28125 385.511719 581.941406 382.28125 C 580.605469 379.054688 578.609375 376.066406 576.105469 373.566406 C 573.597656 371.066406 570.605469 369.074219 567.375 367.738281 C 564.140625 366.402344 560.675781 365.714844 557.09375 365.707031 L 557.09375 364.535156 " fill-opacity="1" fill-rule="nonzero"/></g><g clip-path="url(#e66d56277e)"><path fill="#f7f7f7" d="M 521.726562 326.585938 C 526.355469 331.210938 531.902344 334.917969 537.949219 337.414062 C 543.996094 339.925781 550.542969 341.207031 557.09375 341.210938 L 557.09375 342.617188 C 550.363281 342.617188 543.628906 341.296875 537.410156 338.714844 C 531.191406 336.144531 525.492188 332.332031 520.730469 327.582031 C 515.96875 322.832031 512.152344 317.140625 509.578125 310.929688 C 506.992188 304.722656 505.671875 298.003906 505.667969 291.285156 L 507.078125 291.285156 C 507.078125 297.824219 508.367188 304.355469 510.878906 310.394531 C 513.382812 316.429688 517.09375 321.964844 521.726562 326.585938 " fill-opacity="1" fill-rule="nonzero"/></g><g clip-path="url(#ee45ea6314)"><path fill="#f7f7f7" d="M 489.296875 319.324219 C 492.980469 328.207031 498.425781 336.3125 505.203125 343.078125 C 511.984375 349.847656 520.105469 355.285156 529 358.960938 C 533.445312 360.800781 538.078125 362.203125 542.796875 363.132812 C 547.515625 364.066406 552.320312 364.53125 557.09375 364.535156 L 557.09375 365.707031 C 552.246094 365.703125 547.363281 365.230469 542.570312 364.28125 C 537.777344 363.335938 533.066406 361.914062 528.550781 360.042969 C 519.511719 356.308594 511.261719 350.785156 504.375 343.90625 C 497.488281 337.035156 491.953125 328.796875 488.210938 319.773438 C 486.339844 315.265625 484.914062 310.566406 483.964844 305.78125 C 483.015625 300.996094 482.542969 296.125 482.539062 291.285156 L 483.714844 291.285156 C 483.71875 296.046875 484.179688 300.84375 485.117188 305.550781 C 486.050781 310.261719 487.453125 314.890625 489.296875 319.324219 " fill-opacity="1" fill-rule="nonzero"/></g><g clip-path="url(#dc62e1e638)"><path fill="#f7f7f7" d="M 532.242188 301.546875 C 533.578125 304.773438 535.578125 307.761719 538.082031 310.261719 C 540.585938 312.761719 543.578125 314.757812 546.808594 316.089844 C 550.046875 317.425781 553.507812 318.113281 557.09375 318.125 L 557.09375 319.292969 C 553.359375 319.285156 549.738281 318.570312 546.359375 317.171875 C 542.984375 315.777344 539.863281 313.699219 537.25 311.089844 C 534.640625 308.480469 532.554688 305.367188 531.160156 301.996094 C 529.757812 298.625 529.039062 295.011719 529.03125 291.285156 L 530.207031 291.285156 C 530.214844 294.859375 530.902344 298.320312 532.242188 301.546875 " fill-opacity="1" fill-rule="nonzero"/></g><g clip-path="url(#6fe024ac06)"><path fill="#525252" d="M 751.667969 89.320312 C 751.660156 85.914062 751.007812 82.636719 749.734375 79.566406 C 748.46875 76.507812 746.574219 73.664062 744.199219 71.289062 C 741.820312 68.910156 738.980469 67.015625 735.917969 65.75 C 732.851562 64.480469 729.574219 63.828125 726.167969 63.820312 L 726.167969 12.820312 C 731.140625 12.824219 736.148438 13.308594 741.066406 14.28125 C 745.988281 15.253906 750.820312 16.71875 755.453125 18.640625 C 764.730469 22.480469 773.195312 28.160156 780.261719 35.226562 C 787.328125 42.289062 793.003906 50.757812 796.847656 60.03125 C 798.769531 64.667969 800.230469 69.5 801.203125 74.417969 C 802.179688 79.339844 802.664062 84.347656 802.667969 89.320312 L 751.667969 89.320312 " fill-opacity="1" fill-rule="nonzero"/></g><g clip-path="url(#9797e7d493)"><path fill="#f7f7f7" d="M 762.730469 52.753906 C 757.945312 47.96875 752.214844 44.128906 745.957031 41.542969 C 739.703125 38.941406 732.933594 37.613281 726.167969 37.609375 L 726.167969 39.027344 C 732.753906 39.03125 739.335938 40.324219 745.414062 42.851562 C 751.496094 45.367188 757.074219 49.101562 761.730469 53.757812 C 766.386719 58.414062 770.117188 63.988281 772.636719 70.070312 C 775.164062 76.152344 776.457031 82.734375 776.460938 89.320312 L 777.875 89.320312 C 777.875 82.550781 776.542969 75.78125 773.945312 69.527344 C 771.355469 63.273438 767.515625 57.542969 762.730469 52.753906 " fill-opacity="1" fill-rule="nonzero"/></g><g clip-path="url(#c0932c8555)"><path fill="#f7f7f7" d="M 799.699219 74.71875 C 798.746094 69.894531 797.3125 65.164062 795.429688 60.621094 C 791.664062 51.53125 786.101562 43.234375 779.175781 36.308594 C 772.253906 29.386719 763.953125 23.820312 754.867188 20.058594 C 750.324219 18.175781 745.589844 16.742188 740.769531 15.785156 C 735.949219 14.832031 731.042969 14.355469 726.167969 14.355469 L 726.167969 15.535156 C 730.964844 15.539062 735.796875 16.003906 740.539062 16.945312 C 745.285156 17.882812 749.945312 19.296875 754.414062 21.148438 C 763.359375 24.851562 771.527344 30.328125 778.339844 37.144531 C 785.15625 43.960938 790.632812 52.128906 794.339844 61.074219 C 796.191406 65.542969 797.601562 70.203125 798.542969 74.945312 C 799.480469 79.691406 799.949219 84.519531 799.953125 89.320312 L 801.132812 89.320312 C 801.128906 84.445312 800.65625 79.539062 799.699219 74.71875 " fill-opacity="1" fill-rule="nonzero"/></g><g clip-path="url(#50dbd0c97f)"><path fill="#f7f7f7" d="M 746.117188 69.367188 C 743.492188 66.742188 740.351562 64.644531 736.957031 63.242188 C 733.5625 61.835938 729.921875 61.113281 726.167969 61.105469 L 726.167969 62.285156 C 729.769531 62.292969 733.253906 62.984375 736.507812 64.332031 C 739.753906 65.675781 742.765625 67.6875 745.285156 70.203125 C 747.800781 72.722656 749.808594 75.730469 751.152344 78.980469 C 752.5 82.234375 753.195312 85.714844 753.203125 89.320312 L 754.382812 89.320312 C 754.375 85.566406 753.652344 81.925781 752.242188 78.527344 C 750.839844 75.136719 748.746094 71.996094 746.117188 69.367188 " fill-opacity="1" fill-rule="nonzero"/></g><g clip-path="url(#2fe3d5db3a)"><path fill="#525252" d="M 531.585938 291.703125 C 531.59375 288.296875 532.246094 285.019531 533.519531 281.953125 C 534.785156 278.890625 536.679688 276.050781 539.054688 273.671875 C 541.433594 271.296875 544.273438 269.402344 547.335938 268.136719 C 550.402344 266.863281 553.679688 266.210938 557.085938 266.203125 L 557.085938 215.203125 C 552.113281 215.207031 547.105469 215.691406 542.1875 216.664062 C 537.265625 217.640625 532.433594 219.101562 527.800781 221.023438 C 518.523438 224.867188 510.058594 230.542969 502.992188 237.609375 C 495.925781 244.675781 490.25 253.140625 486.40625 262.417969 C 484.484375 267.050781 483.023438 271.882812 482.046875 276.804688 C 481.074219 281.722656 480.589844 286.730469 480.585938 291.703125 L 531.585938 291.703125 " fill-opacity="1" fill-rule="nonzero"/></g><g clip-path="url(#18ba6b0e98)"><path fill="#f7f7f7" d="M 520.523438 255.140625 C 525.308594 250.355469 531.039062 246.515625 537.296875 243.925781 C 543.546875 241.328125 550.320312 239.996094 557.085938 239.996094 L 557.085938 241.410156 C 550.5 241.414062 543.917969 242.707031 537.839844 245.234375 C 531.753906 247.75 526.179688 251.484375 521.523438 256.140625 C 516.867188 260.796875 513.132812 266.371094 510.617188 272.457031 C 508.089844 278.535156 506.796875 285.117188 506.792969 291.703125 L 505.378906 291.703125 C 505.378906 284.9375 506.710938 278.164062 509.308594 271.914062 C 511.898438 265.65625 515.738281 259.925781 520.523438 255.140625 " fill-opacity="1" fill-rule="nonzero"/></g><g clip-path="url(#d8c963f7ea)"><path fill="#f7f7f7" d="M 483.554688 277.101562 C 484.507812 272.28125 485.941406 267.546875 487.824219 263.003906 C 491.589844 253.917969 497.152344 245.617188 504.078125 238.695312 C 511 231.769531 519.300781 226.207031 528.386719 222.441406 C 532.929688 220.558594 537.664062 219.125 542.484375 218.171875 C 547.304688 217.214844 552.210938 216.742188 557.085938 216.738281 L 557.085938 217.917969 C 552.289062 217.921875 547.457031 218.390625 542.714844 219.328125 C 537.96875 220.269531 533.308594 221.679688 528.839844 223.53125 C 519.894531 227.238281 511.726562 232.714844 504.914062 239.53125 C 498.097656 246.34375 492.621094 254.511719 488.914062 263.457031 C 487.0625 267.925781 485.652344 272.585938 484.710938 277.332031 C 483.773438 282.074219 483.304688 286.90625 483.300781 291.703125 L 482.121094 291.703125 C 482.125 286.828125 482.597656 281.921875 483.554688 277.101562 " fill-opacity="1" fill-rule="nonzero"/></g><g clip-path="url(#093a48679f)"><path fill="#f7f7f7" d="M 537.136719 271.753906 C 539.761719 269.125 542.902344 267.03125 546.296875 265.628906 C 549.691406 264.21875 553.332031 263.496094 557.085938 263.488281 L 557.085938 264.667969 C 553.484375 264.675781 550 265.371094 546.746094 266.71875 C 543.496094 268.0625 540.488281 270.070312 537.96875 272.585938 C 535.453125 275.105469 533.445312 278.113281 532.101562 281.363281 C 530.753906 284.617188 530.058594 288.101562 530.050781 291.703125 L 528.871094 291.703125 C 528.878906 287.949219 529.601562 284.308594 531.011719 280.914062 C 532.414062 277.519531 534.507812 274.378906 537.136719 271.753906 " fill-opacity="1" fill-rule="nonzero"/></g><g clip-path="url(#f24af5346d)"><path fill="#525252" d="M 649.910156 189.550781 C 649.902344 192.957031 649.25 196.234375 647.976562 199.300781 C 646.710938 202.363281 644.816406 205.203125 642.441406 207.582031 C 640.0625 209.957031 637.222656 211.851562 634.160156 213.117188 C 631.09375 214.386719 627.816406 215.039062 624.410156 215.050781 L 624.410156 266.050781 C 629.382812 266.046875 634.386719 265.5625 639.308594 264.585938 C 644.230469 263.613281 649.0625 262.148438 653.695312 260.226562 C 662.972656 256.386719 671.4375 250.710938 678.503906 243.644531 C 685.570312 236.578125 691.246094 228.113281 695.085938 218.835938 C 697.011719 214.199219 698.472656 209.367188 699.445312 204.449219 C 700.421875 199.527344 700.90625 194.523438 700.910156 189.550781 L 649.910156 189.550781 " fill-opacity="1" fill-rule="nonzero"/></g><g clip-path="url(#63db417d7d)"><path fill="#f7f7f7" d="M 660.972656 226.113281 C 656.1875 230.898438 650.457031 234.738281 644.199219 237.328125 C 637.945312 239.925781 631.175781 241.253906 624.410156 241.257812 L 624.410156 239.839844 C 630.996094 239.839844 637.578125 238.542969 643.65625 236.019531 C 649.738281 233.5 655.3125 229.765625 659.972656 225.109375 C 664.628906 220.453125 668.359375 214.878906 670.878906 208.796875 C 673.40625 202.714844 674.699219 196.136719 674.699219 189.550781 L 676.117188 189.550781 C 676.117188 196.316406 674.785156 203.085938 672.1875 209.339844 C 669.597656 215.59375 665.757812 221.328125 660.972656 226.113281 " fill-opacity="1" fill-rule="nonzero"/></g><g clip-path="url(#17421bd823)"><path fill="#f7f7f7" d="M 697.941406 204.152344 C 696.988281 208.972656 695.554688 213.707031 693.671875 218.246094 C 689.90625 227.335938 684.34375 235.632812 677.417969 242.558594 C 670.496094 249.484375 662.195312 255.046875 653.109375 258.8125 C 648.566406 260.695312 643.832031 262.128906 639.011719 263.082031 C 634.191406 264.035156 629.285156 264.511719 624.410156 264.515625 L 624.410156 263.335938 C 629.207031 263.332031 634.039062 262.863281 638.78125 261.921875 C 643.527344 260.984375 648.1875 259.574219 652.65625 257.71875 C 661.601562 254.015625 669.765625 248.539062 676.582031 241.722656 C 683.398438 234.90625 688.875 226.742188 692.578125 217.796875 C 694.433594 213.324219 695.84375 208.667969 696.785156 203.921875 C 697.722656 199.175781 698.191406 194.347656 698.195312 189.550781 L 699.375 189.550781 C 699.371094 194.421875 698.898438 199.328125 697.941406 204.152344 " fill-opacity="1" fill-rule="nonzero"/></g><g clip-path="url(#88e882a8a8)"><path fill="#f7f7f7" d="M 644.359375 209.5 C 641.734375 212.125 638.59375 214.222656 635.199219 215.625 C 631.804688 217.035156 628.164062 217.757812 624.410156 217.765625 L 624.410156 216.585938 C 628.011719 216.574219 631.496094 215.882812 634.75 214.535156 C 637.996094 213.191406 641.007812 211.183594 643.527344 208.667969 C 646.042969 206.148438 648.050781 203.136719 649.394531 199.890625 C 650.742188 196.632812 651.433594 193.152344 651.445312 189.550781 L 652.625 189.550781 C 652.617188 193.304688 651.894531 196.945312 650.484375 200.339844 C 649.082031 203.734375 646.988281 206.875 644.359375 209.5 " fill-opacity="1" fill-rule="nonzero"/></g><g clip-path="url(#9e9639752f)"><path fill="#525252" d="M 633.226562 392.046875 C 633.238281 395.453125 633.890625 398.730469 635.160156 401.796875 C 636.425781 404.859375 638.320312 407.699219 640.695312 410.078125 C 643.074219 412.453125 645.914062 414.347656 648.976562 415.617188 C 652.042969 416.886719 655.324219 417.539062 658.726562 417.546875 L 658.726562 468.546875 C 653.757812 468.542969 648.75 468.058594 643.828125 467.085938 C 638.910156 466.109375 634.078125 464.648438 629.441406 462.726562 C 620.164062 458.886719 611.699219 453.207031 604.632812 446.140625 C 597.570312 439.074219 591.890625 430.609375 588.050781 421.332031 C 586.128906 416.699219 584.664062 411.867188 583.691406 406.945312 C 582.714844 402.027344 582.230469 397.019531 582.226562 392.046875 L 633.226562 392.046875 " fill-opacity="1" fill-rule="nonzero"/></g><g clip-path="url(#93aaf64545)"><path fill="#f7f7f7" d="M 622.164062 428.609375 C 626.953125 433.398438 632.683594 437.234375 638.9375 439.824219 C 645.191406 442.421875 651.960938 443.753906 658.726562 443.757812 L 658.726562 442.339844 C 652.140625 442.335938 645.5625 441.042969 639.480469 438.515625 C 633.398438 436 627.824219 432.265625 623.167969 427.609375 C 618.511719 422.953125 614.777344 417.378906 612.257812 411.292969 C 609.734375 405.214844 608.4375 398.632812 608.4375 392.046875 L 607.019531 392.046875 C 607.023438 398.816406 608.351562 405.585938 610.949219 411.835938 C 613.539062 418.09375 617.378906 423.824219 622.164062 428.609375 " fill-opacity="1" fill-rule="nonzero"/></g><g clip-path="url(#6d77b437c4)"><path fill="#f7f7f7" d="M 585.195312 406.648438 C 586.148438 411.46875 587.582031 416.203125 589.46875 420.746094 C 593.230469 429.835938 598.792969 438.132812 605.71875 445.054688 C 612.644531 451.980469 620.941406 457.546875 630.03125 461.308594 C 634.570312 463.191406 639.304688 464.625 644.128906 465.578125 C 648.949219 466.535156 653.855469 467.007812 658.726562 467.011719 L 658.726562 465.832031 C 653.929688 465.828125 649.101562 465.363281 644.355469 464.421875 C 639.609375 463.480469 634.953125 462.070312 630.480469 460.21875 C 621.535156 456.515625 613.371094 451.039062 606.554688 444.222656 C 599.738281 437.40625 594.261719 429.238281 590.558594 420.292969 C 588.703125 415.824219 587.292969 411.164062 586.355469 406.417969 C 585.414062 401.675781 584.945312 396.847656 584.945312 392.046875 L 583.761719 392.046875 C 583.765625 396.921875 584.242188 401.828125 585.195312 406.648438 " fill-opacity="1" fill-rule="nonzero"/></g><g clip-path="url(#2c047acd31)"><path fill="#f7f7f7" d="M 638.777344 412 C 641.40625 414.625 644.542969 416.71875 647.9375 418.125 C 651.335938 419.53125 654.972656 420.253906 658.726562 420.261719 L 658.726562 419.082031 C 655.125 419.074219 651.644531 418.382812 648.390625 417.035156 C 645.140625 415.6875 642.132812 413.679688 639.613281 411.164062 C 637.09375 408.644531 635.085938 405.636719 633.742188 402.386719 C 632.394531 399.132812 631.703125 395.648438 631.695312 392.046875 L 630.511719 392.046875 C 630.519531 395.800781 631.242188 399.441406 632.652344 402.839844 C 634.054688 406.230469 636.152344 409.371094 638.777344 412 " fill-opacity="1" fill-rule="nonzero"/></g><g clip-path="url(#dc41d6c5b9)"><path fill="#525252" d="M 624.351562 266.203125 L 556.851562 266.203125 L 556.851562 215.203125 L 624.351562 215.203125 L 624.351562 266.203125 " fill-opacity="1" fill-rule="nonzero"/></g><g clip-path="url(#0bd7847543)"><path fill="#f7f7f7" d="M 624.351562 241.410156 L 556.851562 241.410156 L 556.851562 239.996094 L 624.351562 239.996094 L 624.351562 241.410156 " fill-opacity="1" fill-rule="nonzero"/></g><g clip-path="url(#d3e0842016)"><path fill="#f7f7f7" d="M 624.351562 217.917969 L 556.851562 217.917969 L 556.851562 216.738281 L 624.351562 216.738281 L 624.351562 217.917969 " fill-opacity="1" fill-rule="nonzero"/></g><g clip-path="url(#10fdb362d1)"><path fill="#f7f7f7" d="M 624.351562 264.667969 L 556.851562 264.667969 L 556.851562 263.488281 L 624.351562 263.488281 L 624.351562 264.667969 " fill-opacity="1" fill-rule="nonzero"/></g><g clip-path="url(#55e60b419e)"><path fill="#525252" d="M 726.042969 468.742188 L 658.542969 468.742188 L 658.542969 417.742188 L 726.042969 417.742188 L 726.042969 468.742188 " fill-opacity="1" fill-rule="nonzero"/></g><g clip-path="url(#432385e795)"><path fill="#f7f7f7" d="M 726.042969 443.949219 L 658.542969 443.949219 L 658.542969 442.535156 L 726.042969 442.535156 L 726.042969 443.949219 " fill-opacity="1" fill-rule="nonzero"/></g><g clip-path="url(#7b43d5c59b)"><path fill="#f7f7f7" d="M 726.042969 420.457031 L 658.542969 420.457031 L 658.542969 419.277344 L 726.042969 419.277344 L 726.042969 420.457031 " fill-opacity="1" fill-rule="nonzero"/></g><g clip-path="url(#e5edb8c665)"><path fill="#f7f7f7" d="M 726.042969 467.207031 L 658.542969 467.207031 L 658.542969 466.027344 L 726.042969 466.027344 L 726.042969 467.207031 " fill-opacity="1" fill-rule="nonzero"/></g><g clip-path="url(#f09494a69f)"><path fill="#525252" d="M 735.269531 63.820312 L 667.769531 63.820312 L 667.769531 12.820312 L 735.269531 12.820312 L 735.269531 63.820312 " fill-opacity="1" fill-rule="nonzero"/></g><g clip-path="url(#b52d8e0ada)"><path fill="#f7f7f7" d="M 735.269531 39.027344 L 667.769531 39.027344 L 667.769531 37.609375 L 735.269531 37.609375 L 735.269531 39.027344 " fill-opacity="1" fill-rule="nonzero"/></g><g clip-path="url(#d5a7dc8c84)"><path fill="#f7f7f7" d="M 735.269531 15.535156 L 667.769531 15.535156 L 667.769531 14.355469 L 735.269531 14.355469 L 735.269531 15.535156 " fill-opacity="1" fill-rule="nonzero"/></g><g clip-path="url(#6f8b058f0e)"><path fill="#f7f7f7" d="M 735.269531 62.285156 L 667.769531 62.285156 L 667.769531 61.105469 L 735.269531 61.105469 L 735.269531 62.285156 " fill-opacity="1" fill-rule="nonzero"/></g><g clip-path="url(#ab91b1685c)"><path fill="#525252" d="M 702.640625 585.011719 C 703.898438 581.96875 705.785156 579.152344 708.148438 576.789062 C 710.511719 574.429688 713.335938 572.550781 716.382812 571.292969 C 719.433594 570.03125 722.691406 569.382812 726.078125 569.375 C 731.023438 569.371094 736.003906 568.890625 740.898438 567.921875 C 745.789062 566.957031 750.59375 565.503906 755.207031 563.597656 C 764.429688 559.785156 772.851562 554.148438 779.875 547.132812 C 786.902344 540.117188 792.550781 531.714844 796.371094 522.503906 C 798.28125 517.902344 799.738281 513.105469 800.707031 508.222656 C 801.675781 503.335938 802.15625 498.367188 802.160156 493.429688 L 751.441406 493.429688 C 751.429688 496.8125 750.78125 500.066406 749.519531 503.109375 C 748.257812 506.152344 746.375 508.96875 744.011719 511.332031 C 741.648438 513.691406 738.824219 515.570312 735.777344 516.828125 C 732.726562 518.089844 729.46875 518.734375 726.078125 518.746094 C 721.132812 518.75 716.15625 519.230469 711.261719 520.195312 C 706.371094 521.164062 701.5625 522.617188 696.953125 524.523438 C 687.730469 528.335938 679.308594 533.972656 672.28125 540.988281 C 665.257812 548.003906 659.609375 556.40625 655.789062 565.617188 C 653.878906 570.21875 652.421875 575.015625 651.453125 579.898438 C 650.484375 584.785156 650.003906 589.753906 650 594.691406 L 700.71875 594.691406 C 700.730469 591.308594 701.378906 588.054688 702.640625 585.011719 " fill-opacity="1" fill-rule="nonzero"/></g><g clip-path="url(#165b1c4297)"><path fill="#f7f7f7" d="M 761.445312 528.734375 C 756.816406 533.355469 751.269531 537.0625 745.222656 539.5625 C 739.175781 542.070312 732.628906 543.355469 726.078125 543.355469 L 726.078125 544.765625 C 732.8125 544.761719 739.542969 543.441406 745.761719 540.859375 C 751.984375 538.289062 757.679688 534.480469 762.441406 529.726562 C 767.203125 524.976562 771.019531 519.285156 773.59375 513.078125 C 776.179688 506.871094 777.5 500.148438 777.503906 493.429688 L 776.09375 493.429688 C 776.09375 499.96875 774.808594 506.503906 772.292969 512.539062 C 769.789062 518.578125 766.078125 524.109375 761.445312 528.734375 " fill-opacity="1" fill-rule="nonzero"/></g><g clip-path="url(#bd9b4b834f)"><path fill="#f7f7f7" d="M 793.875 521.472656 C 790.191406 530.351562 784.746094 538.460938 777.96875 545.226562 C 771.1875 551.992188 763.066406 557.429688 754.171875 561.105469 C 749.726562 562.945312 745.09375 564.347656 740.375 565.28125 C 735.65625 566.210938 730.851562 566.675781 726.078125 566.679688 L 726.078125 567.851562 C 730.925781 567.847656 735.808594 567.378906 740.601562 566.429688 C 745.394531 565.480469 750.105469 564.058594 754.621094 562.1875 C 763.660156 558.453125 771.910156 552.929688 778.796875 546.054688 C 785.683594 539.179688 791.21875 530.945312 794.960938 521.921875 C 796.832031 517.410156 798.257812 512.714844 799.207031 507.925781 C 800.15625 503.140625 800.628906 498.269531 800.632812 493.429688 L 799.460938 493.429688 C 799.457031 498.195312 798.992188 502.988281 798.054688 507.699219 C 797.125 512.410156 795.71875 517.035156 793.875 521.472656 " fill-opacity="1" fill-rule="nonzero"/></g><g clip-path="url(#f2bcee5be8)"><path fill="#f7f7f7" d="M 726.078125 521.441406 C 729.8125 521.433594 733.433594 520.714844 736.8125 519.316406 C 740.1875 517.925781 743.308594 515.84375 745.921875 513.234375 C 748.53125 510.628906 750.617188 507.511719 752.011719 504.144531 C 753.414062 500.769531 754.132812 497.15625 754.140625 493.429688 L 752.964844 493.429688 C 752.957031 497.007812 752.269531 500.464844 750.929688 503.695312 C 749.59375 506.917969 747.59375 509.90625 745.089844 512.40625 C 742.585938 514.90625 739.59375 516.902344 736.363281 518.234375 C 733.125 519.574219 729.664062 520.261719 726.078125 520.269531 L 726.078125 521.441406 " fill-opacity="1" fill-rule="nonzero"/></g><g clip-path="url(#529f435c43)"><path fill="#f7f7f7" d="M 690.714844 559.386719 C 695.34375 554.765625 700.890625 551.058594 706.9375 548.558594 C 712.984375 546.050781 719.53125 544.765625 726.078125 544.765625 L 726.078125 543.355469 C 719.347656 543.359375 712.617188 544.679688 706.398438 547.257812 C 700.175781 549.828125 694.476562 553.640625 689.71875 558.394531 C 684.957031 563.144531 681.140625 568.832031 678.566406 575.042969 C 675.980469 581.25 674.660156 587.972656 674.65625 594.691406 L 676.066406 594.691406 C 676.066406 588.152344 677.351562 581.617188 679.867188 575.582031 C 682.371094 569.542969 686.082031 564.011719 690.714844 559.386719 " fill-opacity="1" fill-rule="nonzero"/></g><g clip-path="url(#e15c391028)"><path fill="#f7f7f7" d="M 658.285156 566.648438 C 661.96875 557.769531 667.414062 549.660156 674.191406 542.894531 C 680.96875 536.128906 689.09375 530.691406 697.988281 527.015625 C 702.433594 525.175781 707.066406 523.773438 711.785156 522.839844 C 716.503906 521.910156 721.308594 521.445312 726.078125 521.441406 L 726.078125 520.269531 C 721.230469 520.273438 716.351562 520.742188 711.558594 521.691406 C 706.765625 522.640625 702.054688 524.0625 697.539062 525.933594 C 688.5 529.667969 680.25 535.191406 673.363281 542.066406 C 666.476562 548.941406 660.941406 557.175781 657.199219 566.199219 C 655.328125 570.707031 653.898438 575.40625 652.953125 580.195312 C 652 584.980469 651.53125 589.851562 651.527344 594.691406 L 652.699219 594.691406 C 652.703125 589.925781 653.167969 585.132812 654.105469 580.421875 C 655.035156 575.710938 656.441406 571.085938 658.285156 566.648438 " fill-opacity="1" fill-rule="nonzero"/></g><g clip-path="url(#197a7eb0b3)"><path fill="#f7f7f7" d="M 701.230469 584.425781 C 702.566406 581.199219 704.566406 578.214844 707.066406 575.714844 C 709.574219 573.214844 712.566406 571.21875 715.796875 569.886719 C 719.03125 568.546875 722.496094 567.859375 726.078125 567.851562 L 726.078125 566.679688 C 722.347656 566.6875 718.726562 567.40625 715.347656 568.804688 C 711.972656 570.195312 708.851562 572.277344 706.238281 574.882812 C 703.625 577.492188 701.542969 580.609375 700.144531 583.976562 C 698.746094 587.351562 698.027344 590.964844 698.019531 594.691406 L 699.195312 594.691406 C 699.203125 591.113281 699.890625 587.65625 701.230469 584.425781 " fill-opacity="1" fill-rule="nonzero"/></g><g clip-path="url(#a75d6496b9)"><path fill="#525252" d="M 533.574219 705.886719 C 534.832031 708.929688 536.71875 711.746094 539.082031 714.109375 C 541.445312 716.464844 544.269531 718.347656 547.316406 719.605469 C 550.367188 720.867188 553.625 721.511719 557.011719 721.523438 C 561.957031 721.527344 566.9375 722.007812 571.832031 722.972656 C 576.722656 723.941406 581.527344 725.394531 586.136719 727.300781 C 595.363281 731.113281 603.78125 736.75 610.808594 743.765625 C 617.835938 750.78125 623.484375 759.183594 627.304688 768.394531 C 629.214844 772.996094 630.671875 777.792969 631.640625 782.675781 C 632.609375 787.5625 633.089844 792.53125 633.09375 797.46875 L 582.371094 797.46875 C 582.363281 794.085938 581.714844 790.832031 580.453125 787.789062 C 579.191406 784.746094 577.308594 781.925781 574.945312 779.566406 C 572.578125 777.207031 569.757812 775.328125 566.710938 774.070312 C 563.660156 772.808594 560.402344 772.160156 557.011719 772.152344 C 552.066406 772.148438 547.089844 771.667969 542.195312 770.699219 C 537.300781 769.734375 532.496094 768.28125 527.886719 766.375 C 518.664062 762.558594 510.242188 756.925781 503.214844 749.910156 C 496.191406 742.894531 490.542969 734.492188 486.722656 725.28125 C 484.8125 720.679688 483.355469 715.882812 482.386719 711 C 481.417969 706.113281 480.9375 701.144531 480.933594 696.207031 L 531.652344 696.207031 C 531.660156 699.589844 532.3125 702.84375 533.574219 705.886719 " fill-opacity="1" fill-rule="nonzero"/></g><g clip-path="url(#0e8f3a764e)"><path fill="#f7f7f7" d="M 592.378906 762.164062 C 587.75 757.542969 582.203125 753.835938 576.152344 751.335938 C 570.109375 748.828125 563.5625 747.542969 557.011719 747.542969 L 557.011719 746.132812 C 563.742188 746.136719 570.476562 747.457031 576.695312 750.035156 C 582.914062 752.605469 588.613281 756.417969 593.375 761.167969 C 598.136719 765.921875 601.953125 771.609375 604.527344 777.820312 C 607.113281 784.027344 608.433594 790.75 608.4375 797.46875 L 607.027344 797.46875 C 607.027344 790.929688 605.738281 784.394531 603.226562 778.359375 C 600.722656 772.320312 597.007812 766.789062 592.378906 762.164062 " fill-opacity="1" fill-rule="nonzero"/></g><g clip-path="url(#182c9e99eb)"><path fill="#f7f7f7" d="M 624.808594 769.425781 C 621.125 760.546875 615.679688 752.4375 608.902344 745.671875 C 602.121094 738.90625 594 733.46875 585.105469 729.792969 C 580.660156 727.949219 576.027344 726.550781 571.304688 725.617188 C 566.589844 724.683594 561.785156 724.222656 557.011719 724.21875 L 557.011719 723.046875 C 561.859375 723.050781 566.742188 723.519531 571.535156 724.46875 C 576.328125 725.417969 581.039062 726.839844 585.554688 728.710938 C 594.59375 732.445312 602.84375 737.96875 609.730469 744.84375 C 616.617188 751.71875 622.152344 759.953125 625.894531 768.976562 C 627.765625 773.484375 629.191406 778.183594 630.140625 782.972656 C 631.089844 787.757812 631.5625 792.628906 631.566406 797.46875 L 630.394531 797.46875 C 630.386719 792.703125 629.925781 787.910156 628.988281 783.199219 C 628.054688 778.488281 626.652344 773.863281 624.808594 769.425781 " fill-opacity="1" fill-rule="nonzero"/></g><g clip-path="url(#2000b512d8)"><path fill="#f7f7f7" d="M 557.011719 769.457031 C 560.746094 769.464844 564.367188 770.183594 567.746094 771.582031 C 571.121094 772.972656 574.242188 775.054688 576.855469 777.660156 C 579.464844 780.269531 581.550781 783.386719 582.945312 786.753906 C 584.347656 790.128906 585.066406 793.742188 585.074219 797.46875 L 583.898438 797.46875 C 583.890625 793.890625 583.203125 790.433594 581.863281 787.203125 C 580.523438 783.976562 578.527344 780.992188 576.023438 778.488281 C 573.519531 775.992188 570.527344 773.996094 567.296875 772.664062 C 564.058594 771.324219 560.597656 770.636719 557.011719 770.628906 L 557.011719 769.457031 " fill-opacity="1" fill-rule="nonzero"/></g><g clip-path="url(#e2aa8e9610)"><path fill="#f7f7f7" d="M 521.648438 731.511719 C 526.277344 736.132812 531.824219 739.839844 537.871094 742.339844 C 543.917969 744.847656 550.464844 746.132812 557.011719 746.132812 L 557.011719 747.542969 C 550.28125 747.539062 543.550781 746.21875 537.332031 743.636719 C 531.109375 741.066406 525.410156 737.257812 520.652344 732.503906 C 515.890625 727.753906 512.074219 722.0625 509.496094 715.855469 C 506.914062 709.648438 505.589844 702.925781 505.589844 696.207031 L 506.996094 696.207031 C 507 702.746094 508.285156 709.277344 510.800781 715.316406 C 513.304688 721.355469 517.015625 726.886719 521.648438 731.511719 " fill-opacity="1" fill-rule="nonzero"/></g><g clip-path="url(#d206a54347)"><path fill="#f7f7f7" d="M 489.21875 724.25 C 492.898438 733.128906 498.347656 741.238281 505.125 748.003906 C 511.902344 754.769531 520.027344 760.207031 528.921875 763.882812 C 533.367188 765.722656 538 767.125 542.71875 768.058594 C 547.4375 768.988281 552.242188 769.453125 557.011719 769.457031 L 557.011719 770.628906 C 552.164062 770.625 547.285156 770.15625 542.492188 769.207031 C 537.695312 768.257812 532.988281 766.835938 528.472656 764.964844 C 519.433594 761.230469 511.183594 755.707031 504.296875 748.832031 C 497.410156 741.957031 491.875 733.722656 488.132812 724.695312 C 486.261719 720.1875 484.832031 715.488281 483.886719 710.703125 C 482.933594 705.917969 482.464844 701.046875 482.460938 696.207031 L 483.632812 696.207031 C 483.636719 700.972656 484.101562 705.765625 485.035156 710.476562 C 485.96875 715.1875 487.375 719.8125 489.21875 724.25 " fill-opacity="1" fill-rule="nonzero"/></g><g clip-path="url(#3820583161)"><path fill="#f7f7f7" d="M 532.164062 706.472656 C 533.5 709.695312 535.496094 712.683594 538 715.183594 C 540.507812 717.683594 543.5 719.679688 546.730469 721.011719 C 549.964844 722.351562 553.429688 723.035156 557.011719 723.046875 L 557.011719 724.21875 C 553.277344 724.210938 549.660156 723.492188 546.28125 722.09375 C 542.90625 720.703125 539.785156 718.621094 537.171875 716.015625 C 534.558594 713.40625 532.476562 710.289062 531.078125 706.921875 C 529.679688 703.546875 528.960938 699.933594 528.953125 696.207031 L 530.128906 696.207031 C 530.136719 699.785156 530.824219 703.242188 532.164062 706.472656 " fill-opacity="1" fill-rule="nonzero"/></g><g clip-path="url(#61fb5e8561)"><path fill="#525252" d="M 751.589844 494.242188 C 751.578125 490.835938 750.925781 487.558594 749.65625 484.492188 C 748.390625 481.429688 746.496094 478.589844 744.121094 476.210938 C 741.742188 473.835938 738.902344 471.941406 735.839844 470.675781 C 732.773438 469.402344 729.496094 468.75 726.089844 468.742188 L 726.089844 417.742188 C 731.0625 417.746094 736.066406 418.230469 740.988281 419.203125 C 745.90625 420.179688 750.738281 421.640625 755.375 423.5625 C 764.652344 427.40625 773.117188 433.082031 780.183594 440.148438 C 787.25 447.214844 792.925781 455.679688 796.765625 464.957031 C 798.6875 469.589844 800.152344 474.421875 801.125 479.34375 C 802.101562 484.261719 802.585938 489.269531 802.589844 494.242188 L 751.589844 494.242188 " fill-opacity="1" fill-rule="nonzero"/></g><g clip-path="url(#740b0546ef)"><path fill="#f7f7f7" d="M 762.652344 457.679688 C 757.863281 452.890625 752.132812 449.054688 745.878906 446.464844 C 739.625 443.867188 732.855469 442.535156 726.089844 442.535156 L 726.089844 443.949219 C 732.675781 443.953125 739.253906 445.246094 745.335938 447.773438 C 751.417969 450.289062 756.992188 454.023438 761.648438 458.679688 C 766.304688 463.335938 770.039062 468.910156 772.558594 474.996094 C 775.082031 481.074219 776.378906 487.65625 776.378906 494.242188 L 777.796875 494.242188 C 777.792969 487.472656 776.464844 480.703125 773.867188 474.453125 C 771.277344 468.195312 767.4375 462.464844 762.652344 457.679688 " fill-opacity="1" fill-rule="nonzero"/></g><g clip-path="url(#c815710bdb)"><path fill="#f7f7f7" d="M 799.621094 479.640625 C 798.667969 474.820312 797.234375 470.085938 795.347656 465.542969 C 791.585938 456.453125 786.023438 448.15625 779.097656 441.234375 C 772.171875 434.308594 763.875 428.746094 754.785156 424.980469 C 750.246094 423.097656 745.511719 421.664062 740.691406 420.710938 C 735.867188 419.753906 730.960938 419.28125 726.089844 419.277344 L 726.089844 420.457031 C 730.886719 420.460938 735.714844 420.925781 740.460938 421.867188 C 745.207031 422.808594 749.863281 424.21875 754.335938 426.070312 C 763.28125 429.773438 771.445312 435.253906 778.261719 442.070312 C 785.078125 448.882812 790.554688 457.050781 794.257812 465.996094 C 796.113281 470.464844 797.523438 475.125 798.460938 479.871094 C 799.402344 484.613281 799.871094 489.445312 799.875 494.242188 L 801.054688 494.242188 C 801.050781 489.367188 800.574219 484.460938 799.621094 479.640625 " fill-opacity="1" fill-rule="nonzero"/></g><g clip-path="url(#094d353d77)"><path fill="#f7f7f7" d="M 746.039062 474.292969 C 743.410156 471.664062 740.273438 469.570312 736.878906 468.164062 C 733.480469 466.757812 729.84375 466.035156 726.089844 466.027344 L 726.089844 467.207031 C 729.691406 467.214844 733.171875 467.90625 736.425781 469.253906 C 739.675781 470.601562 742.6875 472.609375 745.203125 475.125 C 747.722656 477.644531 749.730469 480.652344 751.074219 483.902344 C 752.421875 487.15625 753.113281 490.640625 753.125 494.242188 L 754.304688 494.242188 C 754.296875 490.488281 753.574219 486.847656 752.164062 483.449219 C 750.761719 480.058594 748.664062 476.917969 746.039062 474.292969 " fill-opacity="1" fill-rule="nonzero"/></g><g clip-path="url(#0791deba7d)"><path fill="#525252" d="M 531.507812 696.625 C 531.515625 693.21875 532.167969 689.941406 533.4375 686.875 C 534.703125 683.8125 536.601562 680.972656 538.976562 678.59375 C 541.355469 676.21875 544.195312 674.324219 547.253906 673.058594 C 550.324219 671.789062 553.601562 671.136719 557.007812 671.125 L 557.007812 620.125 C 552.035156 620.128906 547.027344 620.613281 542.109375 621.589844 C 537.1875 622.5625 532.355469 624.027344 527.71875 625.949219 C 518.445312 629.789062 509.980469 635.464844 502.914062 642.53125 C 495.847656 649.597656 490.167969 658.0625 486.328125 667.339844 C 484.40625 671.976562 482.941406 676.808594 481.96875 681.726562 C 480.996094 686.648438 480.511719 691.652344 480.507812 696.625 L 531.507812 696.625 " fill-opacity="1" fill-rule="nonzero"/></g><g clip-path="url(#a5881ff50f)"><path fill="#f7f7f7" d="M 520.445312 660.0625 C 525.230469 655.277344 530.960938 651.4375 537.21875 648.847656 C 543.46875 646.25 550.238281 644.921875 557.007812 644.917969 L 557.007812 646.335938 C 550.421875 646.335938 543.839844 647.632812 537.757812 650.15625 C 531.675781 652.675781 526.101562 656.410156 521.445312 661.066406 C 516.789062 665.722656 513.054688 671.296875 510.539062 677.378906 C 508.011719 683.460938 506.71875 690.039062 506.714844 696.625 L 505.296875 696.625 C 505.300781 689.859375 506.632812 683.089844 509.230469 676.835938 C 511.816406 670.582031 515.65625 664.851562 520.445312 660.0625 " fill-opacity="1" fill-rule="nonzero"/></g><g clip-path="url(#1f79066592)"><path fill="#f7f7f7" d="M 483.476562 682.023438 C 484.429688 677.203125 485.863281 672.46875 487.746094 667.929688 C 491.507812 658.839844 497.074219 650.542969 504 643.617188 C 510.921875 636.691406 519.21875 631.128906 528.308594 627.363281 C 532.851562 625.480469 537.585938 624.046875 542.40625 623.09375 C 547.226562 622.140625 552.132812 621.664062 557.007812 621.660156 L 557.007812 622.839844 C 552.207031 622.84375 547.378906 623.3125 542.632812 624.253906 C 537.890625 625.191406 533.230469 626.601562 528.761719 628.457031 C 519.816406 632.160156 511.648438 637.636719 504.832031 644.453125 C 498.015625 651.269531 492.539062 659.433594 488.835938 668.378906 C 486.984375 672.851562 485.570312 677.507812 484.632812 682.253906 C 483.691406 687 483.226562 691.828125 483.222656 696.625 L 482.042969 696.625 C 482.046875 691.753906 482.519531 686.847656 483.476562 682.023438 " fill-opacity="1" fill-rule="nonzero"/></g><g clip-path="url(#a58b66e325)"><path fill="#f7f7f7" d="M 537.054688 676.675781 C 539.683594 674.050781 542.824219 671.953125 546.214844 670.550781 C 549.613281 669.140625 553.253906 668.417969 557.007812 668.410156 L 557.007812 669.589844 C 553.40625 669.601562 549.921875 670.292969 546.667969 671.640625 C 543.417969 672.984375 540.410156 674.992188 537.890625 677.511719 C 535.375 680.027344 533.363281 683.039062 532.019531 686.285156 C 530.671875 689.542969 529.980469 693.023438 529.972656 696.625 L 528.792969 696.625 C 528.800781 692.871094 529.523438 689.230469 530.929688 685.835938 C 532.335938 682.441406 534.429688 679.304688 537.054688 676.675781 " fill-opacity="1" fill-rule="nonzero"/></g><g clip-path="url(#5b9bf193a3)"><path fill="#525252" d="M 649.832031 594.472656 C 649.820312 597.878906 649.167969 601.15625 647.898438 604.222656 C 646.632812 607.285156 644.738281 610.125 642.363281 612.503906 C 639.984375 614.878906 637.144531 616.773438 634.082031 618.039062 C 631.015625 619.3125 627.738281 619.964844 624.332031 619.972656 L 624.332031 670.972656 C 629.304688 670.96875 634.308594 670.484375 639.230469 669.511719 C 644.148438 668.535156 648.980469 667.074219 653.617188 665.152344 C 662.894531 661.308594 671.359375 655.632812 678.425781 648.566406 C 685.492188 641.5 691.167969 633.035156 695.007812 623.757812 C 696.929688 619.125 698.394531 614.292969 699.367188 609.371094 C 700.34375 604.453125 700.828125 599.445312 700.832031 594.472656 L 649.832031 594.472656 " fill-opacity="1" fill-rule="nonzero"/></g><g clip-path="url(#4e19800ab7)"><path fill="#f7f7f7" d="M 660.894531 631.035156 C 656.105469 635.820312 650.375 639.660156 644.121094 642.25 C 637.867188 644.847656 631.097656 646.179688 624.332031 646.179688 L 624.332031 644.765625 C 630.917969 644.761719 637.496094 643.46875 643.578125 640.941406 C 649.660156 638.425781 655.234375 634.691406 659.890625 630.035156 C 664.546875 625.378906 668.28125 619.804688 670.800781 613.71875 C 673.324219 607.640625 674.621094 601.058594 674.621094 594.472656 L 676.039062 594.472656 C 676.035156 601.242188 674.707031 608.011719 672.109375 614.261719 C 669.519531 620.519531 665.679688 626.25 660.894531 631.035156 " fill-opacity="1" fill-rule="nonzero"/></g><g clip-path="url(#ce87eb7340)"><path fill="#f7f7f7" d="M 697.863281 609.074219 C 696.910156 613.894531 695.476562 618.628906 693.589844 623.171875 C 689.828125 632.261719 684.265625 640.558594 677.339844 647.480469 C 670.414062 654.40625 662.117188 659.96875 653.027344 663.734375 C 648.488281 665.617188 643.753906 667.050781 638.933594 668.003906 C 634.109375 668.960938 629.203125 669.433594 624.332031 669.4375 L 624.332031 668.257812 C 629.128906 668.253906 633.957031 667.785156 638.703125 666.847656 C 643.449219 665.90625 648.105469 664.496094 652.578125 662.644531 C 661.523438 658.9375 669.6875 653.460938 676.503906 646.644531 C 683.320312 639.832031 688.796875 631.664062 692.5 622.71875 C 694.355469 618.25 695.765625 613.589844 696.703125 608.84375 C 697.644531 604.101562 698.113281 599.269531 698.113281 594.472656 L 699.296875 594.472656 C 699.292969 599.347656 698.816406 604.253906 697.863281 609.074219 " fill-opacity="1" fill-rule="nonzero"/></g><g clip-path="url(#e686e8db64)"><path fill="#f7f7f7" d="M 644.28125 614.421875 C 641.652344 617.050781 638.515625 619.144531 635.121094 620.546875 C 631.722656 621.957031 628.085938 622.679688 624.332031 622.6875 L 624.332031 621.507812 C 627.933594 621.5 631.414062 620.804688 634.667969 619.457031 C 637.917969 618.113281 640.929688 616.105469 643.445312 613.589844 C 645.964844 611.070312 647.972656 608.0625 649.316406 604.8125 C 650.664062 601.558594 651.355469 598.074219 651.367188 594.472656 L 652.546875 594.472656 C 652.539062 598.226562 651.816406 601.867188 650.40625 605.261719 C 649.003906 608.65625 646.90625 611.796875 644.28125 614.421875 " fill-opacity="1" fill-rule="nonzero"/></g><g clip-path="url(#45f1a682f0)"><path fill="#525252" d="M 624.273438 671.125 L 556.773438 671.125 L 556.773438 620.125 L 624.273438 620.125 L 624.273438 671.125 " fill-opacity="1" fill-rule="nonzero"/></g><g clip-path="url(#1fc26a1f45)"><path fill="#f7f7f7" d="M 624.273438 646.335938 L 556.773438 646.335938 L 556.773438 644.917969 L 624.273438 644.917969 L 624.273438 646.335938 " fill-opacity="1" fill-rule="nonzero"/></g><g clip-path="url(#49d52d8776)"><path fill="#f7f7f7" d="M 624.273438 622.839844 L 556.773438 622.839844 L 556.773438 621.660156 L 624.273438 621.660156 L 624.273438 622.839844 " fill-opacity="1" fill-rule="nonzero"/></g><g clip-path="url(#ad8afd2957)"><path fill="#f7f7f7" d="M 624.273438 669.589844 L 556.773438 669.589844 L 556.773438 668.410156 L 624.273438 668.410156 L 624.273438 669.589844 " fill-opacity="1" fill-rule="nonzero"/></g></svg>