<svg xmlns="http://www.w3.org/2000/svg" xmlns:xlink="http://www.w3.org/1999/xlink" width="500" zoomAndPan="magnify" viewBox="0 0 375 374.999991" height="500" preserveAspectRatio="xMidYMid meet" version="1.0"><defs><clipPath id="97987f2241"><path d="M 274 214 L 368.316406 214 L 368.316406 308 L 274 308 Z M 274 214 " clip-rule="nonzero"/></clipPath><clipPath id="df86ad86bb"><path d="M 7 61.019531 L 170 61.019531 L 170 193 L 7 193 Z M 7 61.019531 " clip-rule="nonzero"/></clipPath><clipPath id="76c81d53e2"><path d="M 8 214 L 108 214 L 108 313.769531 L 8 313.769531 Z M 8 214 " clip-rule="nonzero"/></clipPath></defs><path fill="#3f3e8a" d="M 126.375 177.050781 C 124.296875 176.703125 122.207031 176.367188 120.117188 175.980469 C 112.679688 174.792969 105.234375 173.390625 97.902344 171.867188 C 93.164062 170.902344 88.480469 169.832031 83.742188 168.761719 C 81.714844 168.261719 79.742188 167.808594 77.648438 167.640625 C 75.6875 167.472656 73.714844 167.074219 72.125 165.886719 C 69.699219 164.03125 68.910156 160.769531 68.40625 157.78125 C 65.863281 142.300781 66.882812 126.136719 71.957031 111.265625 C 73.480469 106.597656 75.6875 101.816406 79.742188 99.109375 C 84.878906 95.667969 91.640625 96.402344 97.785156 97.355469 C 107.777344 98.992188 117.636719 101.132812 127.394531 103.671875 C 130.328125 104.394531 133.257812 105.195312 136.199219 106.03125 C 126.375 109.757812 118.59375 118.417969 116.0625 128.496094 C 114.371094 135.199219 114.824219 142.238281 116.398438 148.9375 C 117.25 152.664062 118.425781 156.261719 119.730469 159.816406 C 120.851562 162.847656 122.15625 165.667969 123.109375 168.761719 C 123.445312 169.949219 125.136719 176.816406 126.375 177.050781 Z M 126.375 177.050781 " fill-opacity="1" fill-rule="nonzero"/><path fill="#6f6ecf" d="M 126.375 177.050781 C 124.296875 176.703125 122.207031 176.367188 120.117188 175.980469 C 120.117188 175.917969 120.066406 175.863281 120.066406 175.800781 C 118.59375 171.636719 116.515625 167.691406 114.925781 163.53125 C 112.953125 158.398438 111.378906 153.167969 110.472656 147.765625 C 108.617188 136.332031 109.855469 124.113281 116.113281 114.371094 C 118.941406 109.976562 122.878906 106.261719 127.394531 103.671875 C 130.328125 104.394531 133.257812 105.195312 136.199219 106.03125 C 126.375 109.757812 118.59375 118.417969 116.0625 128.496094 C 114.371094 135.199219 114.824219 142.238281 116.398438 148.9375 C 117.25 152.664062 118.425781 156.261719 119.730469 159.816406 C 120.851562 162.847656 122.15625 165.667969 123.109375 168.761719 C 123.445312 169.949219 125.136719 176.816406 126.375 177.050781 Z M 126.375 177.050781 " fill-opacity="1" fill-rule="nonzero"/><path fill="#dcd9ea" d="M 358.265625 246.445312 L 333.367188 257.722656 L 325.183594 261.449219 L 323.671875 262.105469 L 323.671875 262.144531 L 321.476562 263.125 L 320.019531 263.78125 L 311.125 267.816406 L 284.5625 279.867188 C 284.34375 279.96875 284.097656 280.046875 283.851562 280.046875 C 283.191406 280.046875 282.574219 279.660156 282.25 279.003906 C 281.875 278.125 282.25 277.082031 283.128906 276.695312 L 309.484375 264.761719 L 318.199219 260.789062 L 320.40625 259.773438 L 321.902344 259.117188 L 324.058594 258.136719 L 332.113281 254.488281 L 332.113281 254.449219 L 356.804688 243.273438 C 357.671875 242.886719 358.714844 243.273438 359.105469 244.136719 C 359.515625 245.015625 359.140625 246.058594 358.265625 246.445312 Z M 358.265625 246.445312 " fill-opacity="1" fill-rule="nonzero"/><path fill="#dcd9ea" d="M 327.726562 220.601562 L 325 248.597656 L 324.058594 258.136719 L 323.8125 260.507812 L 323.671875 262.105469 L 323.671875 262.144531 L 323.4375 264.515625 L 322.625 272.828125 L 319.875 301.03125 C 319.773438 301.945312 319.039062 302.601562 318.132812 302.601562 L 317.953125 302.601562 C 317.011719 302.5 316.3125 301.664062 316.390625 300.683594 L 319.117188 272.765625 L 320.019531 263.78125 L 320.160156 262.183594 L 320.40625 259.773438 L 320.574219 258.136719 L 321.554688 248.042969 L 324.265625 220.253906 C 324.34375 219.3125 325.207031 218.65625 326.148438 218.695312 C 327.132812 218.796875 327.828125 219.636719 327.726562 220.601562 Z M 327.726562 220.601562 " fill-opacity="1" fill-rule="nonzero"/><path fill="#dcd9ea" d="M 355.4375 285.230469 C 355.089844 285.71875 354.574219 285.964844 354.019531 285.964844 C 353.667969 285.964844 353.320312 285.859375 353 285.640625 L 330.0625 269.246094 L 323.4375 264.515625 L 321.476562 263.125 L 320.160156 262.183594 L 318.199219 260.789062 L 310.042969 254.9375 L 287.167969 238.609375 C 286.40625 238.054688 286.226562 236.972656 286.78125 236.210938 C 287.347656 235.398438 288.421875 235.230469 289.222656 235.785156 L 312.027344 252.050781 L 320.574219 258.136719 L 321.902344 259.117188 L 323.8125 260.507812 L 325.183594 261.449219 L 332.152344 266.421875 L 355.0625 282.792969 C 355.824219 283.347656 356.003906 284.46875 355.4375 285.230469 Z M 355.4375 285.230469 " fill-opacity="1" fill-rule="nonzero"/><g clip-path="url(#97987f2241)"><path fill="#898796" d="M 321.621094 214.210938 C 319.191406 214.210938 316.765625 214.378906 314.402344 214.777344 C 308.699219 215.679688 303.40625 217.535156 298.554688 220.292969 C 284.394531 228.347656 274.867188 243.546875 274.867188 260.894531 C 274.867188 286.632812 295.84375 307.578125 321.621094 307.578125 C 347.394531 307.578125 368.371094 286.632812 368.371094 260.894531 C 368.371094 235.15625 347.394531 214.210938 321.621094 214.210938 Z M 321.621094 297.097656 C 301.597656 297.097656 285.363281 280.886719 285.363281 260.894531 C 285.363281 248.109375 292.007812 236.90625 302 230.488281 C 306.570312 227.5 311.859375 225.527344 317.554688 224.90625 C 318.910156 224.738281 320.265625 224.6875 321.621094 224.6875 C 341.640625 224.6875 357.878906 240.902344 357.878906 260.894531 C 357.878906 280.886719 341.640625 297.097656 321.621094 297.097656 Z M 321.621094 297.097656 " fill-opacity="1" fill-rule="nonzero"/></g><path fill="#727083" d="M 317.554688 224.90625 C 311.859375 225.527344 306.570312 227.5 302 230.488281 L 298.554688 220.292969 C 303.40625 217.535156 308.699219 215.679688 314.402344 214.777344 Z M 317.554688 224.90625 " fill-opacity="1" fill-rule="nonzero"/><path fill="#727083" d="M 321.621094 220.101562 C 299.082031 220.101562 280.726562 238.390625 280.726562 260.894531 C 280.726562 283.398438 299.082031 301.6875 321.621094 301.6875 C 344.15625 301.6875 362.472656 283.398438 362.472656 260.894531 C 362.472656 238.390625 344.15625 220.101562 321.621094 220.101562 Z M 357.890625 260.894531 C 357.890625 280.871094 341.601562 297.097656 321.621094 297.097656 C 301.613281 297.097656 285.324219 280.871094 285.324219 260.894531 C 285.324219 240.902344 301.613281 224.648438 321.621094 224.648438 C 341.601562 224.648438 357.890625 240.902344 357.890625 260.894531 Z M 357.890625 260.894531 " fill-opacity="1" fill-rule="nonzero"/><path fill="#c6bfe0" d="M 325.183594 261.449219 L 332.152344 266.421875 C 331.597656 267.46875 330.898438 268.410156 330.0625 269.246094 L 323.4375 264.515625 L 322.625 272.828125 C 322.148438 272.90625 321.683594 272.933594 321.207031 272.933594 C 320.46875 272.933594 319.773438 272.867188 319.117188 272.765625 L 320.019531 263.78125 L 311.125 267.816406 C 310.46875 266.875 309.898438 265.871094 309.484375 264.761719 L 318.199219 260.789062 L 310.042969 254.9375 C 310.53125 253.894531 311.230469 252.914062 312.027344 252.050781 L 320.574219 258.136719 L 321.554688 248.042969 C 322.742188 248.042969 323.890625 248.25 325 248.597656 L 324.058594 258.136719 L 332.113281 254.488281 C 332.707031 255.492188 333.132812 256.539062 333.367188 257.722656 Z M 325.183594 261.449219 " fill-opacity="1" fill-rule="nonzero"/><path fill="#b3b5e6" d="M 331.261719 260.46875 C 331.261719 266.011719 326.757812 270.523438 321.195312 270.523438 C 315.628906 270.523438 311.125 266.011719 311.125 260.46875 C 311.125 254.914062 315.628906 250.402344 321.195312 250.402344 C 326.757812 250.402344 331.261719 254.914062 331.261719 260.46875 Z M 331.261719 260.46875 " fill-opacity="1" fill-rule="nonzero"/><path fill="#f56357" d="M 296.125 180.257812 L 283.839844 186.960938 L 225.160156 219.070312 L 224.992188 219.183594 L 208.546875 228.167969 L 207.347656 228.851562 L 184.925781 241.121094 L 163.023438 253.058594 L 157.550781 256.007812 L 157.550781 256.074219 L 148.214844 261.125 L 146.746094 258.394531 L 145.597656 257.257812 L 140.9375 252.605469 L 142.757812 251.1875 L 164.042969 239.535156 L 175.476562 233.285156 L 203.757812 217.820312 L 204.960938 217.148438 L 221.289062 208.214844 L 221.46875 208.101562 L 280.132812 175.992188 L 290.667969 170.257812 Z M 296.125 180.257812 " fill-opacity="1" fill-rule="nonzero"/><path fill="#f56357" d="M 303.1875 202.144531 L 292.085938 211.515625 L 248.664062 248.109375 L 231.199219 262.828125 L 206.609375 263.40625 L 179.519531 264.027344 L 157.730469 264.542969 L 145.777344 264.824219 L 145.597656 257.257812 L 145.492188 253.457031 L 158.011719 253.171875 L 163.023438 253.058594 L 182.769531 252.605469 L 205.589844 252.089844 L 218.785156 251.753906 L 226.929688 251.574219 L 229.882812 249.074219 L 242.121094 238.738281 L 288.164062 199.929688 L 295.84375 193.445312 Z M 303.1875 202.144531 " fill-opacity="1" fill-rule="nonzero"/><path fill="#e11a17" d="M 296.125 180.257812 L 283.839844 186.960938 L 280.132812 175.992188 L 290.667969 170.257812 Z M 296.125 180.257812 " fill-opacity="1" fill-rule="nonzero"/><path fill="#e11a17" d="M 303.1875 202.144531 L 292.085938 211.515625 L 288.164062 199.929688 L 295.84375 193.445312 Z M 303.1875 202.144531 " fill-opacity="1" fill-rule="nonzero"/><g clip-path="url(#df86ad86bb)"><path fill="#6f6ecf" d="M 156.414062 105.875 L 103.605469 109.28125 C 100.355469 109.445312 97.050781 109.679688 94.160156 111.097656 C 87.949219 114.230469 85.5625 121.898438 85.160156 128.769531 C 84.53125 137.804688 86.183594 146.902344 89.820312 155.203125 C 90.507812 156.789062 91.253906 158.324219 92.15625 159.804688 C 93.527344 162.472656 95.230469 164.972656 97.050781 167.359375 C 97.632812 168.207031 98.300781 169.058594 98.984375 169.921875 C 99.167969 170.027344 99.21875 170.207031 99.386719 170.308594 L 100.417969 186.511719 C 99.902344 186.679688 99.503906 186.960938 98.984375 187.195312 C 83.574219 194.644531 64.675781 194.359375 49.421875 186.394531 C 43.277344 183.277344 37.867188 178.894531 33.375 173.671875 C 32.460938 172.640625 31.660156 171.625 30.871094 170.605469 C 28.871094 168.039062 27.683594 164.972656 26.765625 161.789062 C 24.546875 154.054688 21.875 146.453125 18.972656 138.949219 C 18.285156 137.300781 17.667969 135.652344 16.984375 134.050781 C 14.195312 127.015625 11.34375 119.914062 8.554688 112.863281 C 7.417969 109.679688 6.851562 106.832031 8.21875 103.261719 C 10.089844 98.476562 12.257812 93.824219 14.699219 89.277344 C 18.003906 83.140625 21.875 76.375 26.597656 70.6875 C 26.597656 70.636719 26.652344 70.585938 26.714844 70.46875 C 28.1875 68.703125 29.671875 67.054688 31.273438 65.585938 C 33.492188 63.472656 37.234375 62.621094 40.488281 62.167969 C 41.390625 62.003906 42.191406 61.9375 42.992188 61.835938 C 47.882812 61.203125 52.839844 61.253906 57.734375 61.371094 C 86.464844 61.886719 115.160156 62.335938 143.890625 62.851562 C 149.132812 62.902344 154.59375 63.085938 159.265625 65.636719 C 164.492188 68.535156 167.449219 79.273438 169.269531 89.277344 C 170.816406 97.574219 164.839844 105.296875 156.414062 105.875 Z M 156.414062 105.875 " fill-opacity="1" fill-rule="nonzero"/></g><path fill="#3f3e8a" d="M 100.417969 186.511719 C 99.902344 186.679688 99.503906 186.960938 98.984375 187.195312 C 83.574219 194.644531 64.675781 194.359375 49.421875 186.394531 C 43.277344 183.277344 37.867188 178.894531 33.375 173.671875 C 32.460938 172.640625 31.660156 171.625 30.871094 170.605469 C 28.871094 168.039062 27.683594 164.972656 26.765625 161.789062 C 24.546875 154.054688 21.875 146.453125 18.972656 138.949219 C 18.285156 137.300781 17.667969 135.652344 16.984375 134.050781 C 14.195312 127.015625 11.34375 119.914062 8.554688 112.863281 C 7.417969 109.679688 6.851562 106.832031 8.21875 103.261719 C 10.089844 98.476562 12.257812 93.824219 14.699219 89.277344 C 18.003906 83.140625 21.875 76.375 26.597656 70.6875 C 23.179688 75.972656 20.570312 81.65625 18.972656 87.691406 C 15.730469 99.910156 17.035156 113.546875 23.695312 124.347656 C 30.304688 135.082031 41.625 142.238281 53.34375 147.019531 C 65.078125 151.851562 77.535156 154.570312 89.433594 158.773438 C 90.339844 159.121094 91.253906 159.40625 92.15625 159.804688 C 93.527344 162.472656 95.230469 164.972656 97.050781 167.359375 C 97.632812 168.207031 98.300781 169.058594 98.984375 169.921875 C 99.167969 170.027344 99.21875 170.207031 99.386719 170.308594 Z M 100.417969 186.511719 " fill-opacity="1" fill-rule="nonzero"/><path fill="#e11a17" d="M 163.023438 253.058594 L 182.769531 252.605469 C 181.855469 256.472656 180.835938 260.273438 179.519531 264.027344 L 157.730469 264.542969 C 157.445312 263.007812 157.328125 261.472656 157.328125 259.875 C 157.328125 258.625 157.382812 257.324219 157.550781 256.074219 L 157.550781 256.007812 C 157.664062 255.042969 157.78125 254.074219 158.011719 253.171875 C 158.980469 248.222656 161.085938 243.570312 164.042969 239.535156 L 175.476562 233.285156 C 177.015625 233.789062 178.433594 234.417969 179.867188 235.21875 C 181.96875 236.40625 184.074219 238.003906 184.757812 240.324219 C 184.808594 240.605469 184.875 240.839844 184.925781 241.121094 Z M 163.023438 253.058594 " fill-opacity="1" fill-rule="nonzero"/><path fill="#e11a17" d="M 221.289062 208.214844 L 224.992188 219.183594 L 208.546875 228.167969 L 207.347656 228.851562 C 206.160156 225.152344 204.960938 221.519531 203.757812 217.820312 Z M 221.289062 208.214844 " fill-opacity="1" fill-rule="nonzero"/><path fill="#898796" d="M 232.273438 256.640625 L 221.46875 260.109375 L 218.785156 251.753906 L 214.292969 237.886719 L 194.542969 176.457031 L 188.515625 157.640625 C 192.269531 156.789062 195.910156 155.886719 199.550781 154.738281 L 204.105469 169.007812 L 224.875 233.621094 L 229.882812 249.074219 Z M 232.273438 256.640625 " fill-opacity="1" fill-rule="nonzero"/><path fill="#e11a17" d="M 248.664062 248.109375 L 231.199219 262.828125 L 206.609375 263.40625 C 205.695312 261.074219 205.242188 258.507812 205.242188 255.839844 C 205.242188 254.589844 205.359375 253.289062 205.589844 252.089844 L 218.785156 251.753906 L 214.292969 237.886719 C 217.3125 235.605469 220.898438 234.136719 224.875 233.621094 L 229.882812 249.074219 L 242.121094 238.738281 C 245.078125 241.1875 247.359375 244.421875 248.664062 248.109375 Z M 248.664062 248.109375 " fill-opacity="1" fill-rule="nonzero"/><path fill="#f56357" d="M 325.117188 254.796875 L 316.742188 229.921875 L 312.234375 216.566406 L 295.054688 165.722656 C 295.234375 165.65625 295.417969 165.578125 295.585938 165.515625 C 298.257812 164.484375 300.929688 163.453125 303.601562 162.421875 C 305.226562 162.085938 306.722656 161.015625 307.574219 159.574219 C 309.449219 156.390625 307.035156 152.703125 305.898438 149.710938 C 305.292969 148.140625 304.75 146.542969 304.167969 144.957031 C 302.59375 140.5625 301.003906 136.164062 299.417969 131.769531 C 296.269531 123.058594 293.117188 114.34375 289.96875 105.632812 C 289.425781 104.125 288.886719 102.617188 288.34375 101.109375 C 287.273438 98.15625 284.03125 96.636719 281.050781 97.691406 C 278.105469 98.761719 276.570312 102.011719 277.628906 104.960938 L 295.160156 153.488281 C 293.234375 154.238281 291.300781 154.984375 289.375 155.71875 C 287.257812 156.542969 284.238281 157.601562 283.414062 159.933594 C 282.457031 162.628906 283.101562 165.992188 283.992188 168.609375 C 285.917969 174.332031 287.851562 180.039062 289.777344 185.761719 C 292.214844 192.980469 294.640625 200.199219 297.082031 207.417969 C 298.28125 210.972656 299.484375 214.53125 300.683594 218.089844 L 305.921875 233.609375 L 314.351562 258.636719 C 315.386719 261.707031 318.636719 263.316406 321.621094 262.246094 C 324.574219 261.175781 326.148438 257.851562 325.117188 254.796875 Z M 325.117188 254.796875 " fill-opacity="1" fill-rule="nonzero"/><path fill="#c6bfe0" d="M 283.140625 106.148438 C 279.644531 106.664062 276.261719 104.5625 275.410156 101.210938 C 274.492188 97.628906 276.777344 93.980469 280.519531 93.050781 L 298.425781 88.632812 C 302.140625 87.664062 305.9375 89.84375 306.851562 93.425781 C 307.78125 97.007812 305.496094 100.65625 301.753906 101.585938 L 283.839844 106.019531 C 283.605469 106.070312 283.375 106.121094 283.140625 106.148438 Z M 283.140625 106.148438 " fill-opacity="1" fill-rule="nonzero"/><path fill="#fde77a" d="M 126.132812 179.988281 C 129.589844 190.96875 129.472656 202.738281 128.765625 214.234375 C 128.054688 225.71875 126.777344 237.269531 127.988281 248.714844 C 121.058594 254.0625 113.015625 257.980469 104.523438 260.121094 C 101.800781 236.199219 99.089844 212.277344 96.609375 188.328125 C 96.042969 182.890625 96.753906 173.171875 104.535156 173.957031 C 107.894531 174.304688 111.417969 175.386719 114.667969 176.25 C 116.683594 176.792969 118.683594 177.386719 120.671875 178.03125 C 121.40625 178.273438 125.925781 179.320312 126.132812 179.988281 Z M 126.132812 179.988281 " fill-opacity="1" fill-rule="nonzero"/><path fill="#c6bfe0" d="M 105.273438 250.09375 C 105.554688 246.804688 105.53125 243.25 107.570312 240.453125 L 129.679688 229.546875 L 179.464844 236.957031 L 105.464844 249.460938 " fill-opacity="1" fill-rule="nonzero"/><path fill="#898796" d="M 101.101562 220.230469 C 98.417969 220.230469 96.03125 218.347656 95.515625 215.613281 C 94.921875 212.535156 96.945312 209.554688 100.03125 208.964844 L 124.117188 204.363281 C 127.203125 203.808594 130.183594 205.792969 130.777344 208.886719 C 131.371094 211.96875 129.34375 214.945312 126.246094 215.539062 L 102.175781 220.136719 C 101.8125 220.203125 101.453125 220.230469 101.101562 220.230469 Z M 101.101562 220.230469 " fill-opacity="1" fill-rule="nonzero"/><path fill="#ef9f27" d="M 130.300781 247 C 128.777344 247 127.511719 245.800781 127.449219 244.265625 L 125.019531 179.136719 L 99.476562 172.410156 C 97.953125 172.011719 97.050781 170.449219 97.449219 168.929688 C 97.851562 167.421875 99.386719 166.480469 100.933594 166.90625 L 128.222656 174.097656 C 128.972656 174.292969 129.589844 174.78125 129.964844 175.425781 C 130.171875 175.710938 130.417969 176.136719 130.496094 176.394531 C 130.585938 176.652344 130.636719 176.921875 130.648438 177.191406 L 133.140625 244.046875 C 133.203125 245.621094 131.980469 246.933594 130.402344 247 C 130.363281 247 130.328125 247 130.300781 247 Z M 130.300781 247 " fill-opacity="1" fill-rule="nonzero"/><path fill="#f8c73b" d="M 179.582031 238.105469 C 179.519531 238.738281 179.519531 239.421875 179.464844 240.039062 C 179.402344 241.289062 179.296875 242.539062 179.117188 243.789062 C 178.78125 246.238281 178.382812 248.6875 177.8125 251.125 C 177.015625 254.9375 175.929688 258.742188 174.742188 262.441406 C 174.34375 263.792969 173.089844 264.710938 171.671875 264.710938 L 115.726562 265.507812 L 101.839844 265.726562 L 102.121094 264.824219 C 102.457031 259.941406 101.089844 254.992188 98.765625 250.503906 C 96.378906 246.007812 92.90625 241.972656 89.152344 238.285156 C 84.878906 234.253906 79.871094 230.5 73.894531 228.566406 C 68.203125 226.6875 60.171875 225.21875 54.3125 226.96875 L 54.878906 227.820312 C 53.976562 227.769531 53.007812 227.886719 52.09375 227.886719 C 49.757812 228.851562 47.550781 230.101562 45.613281 231.636719 C 44.464844 232.601562 39.519531 236.636719 39.855469 238.285156 C 39.519531 236.351562 39.003906 234.472656 38.667969 232.539062 C 38.152344 232.9375 37.585938 233.222656 37.132812 233.621094 C 37.015625 233.054688 36.898438 232.433594 36.785156 231.855469 C 35.480469 225.101562 34.164062 218.398438 32.910156 211.683594 C 32.628906 210.382812 32.34375 209.015625 32.125 207.714844 C 30.125 197.53125 28.871094 187.476562 27 177.242188 C 25.683594 169.859375 24.328125 162.421875 23.011719 155.085938 C 22.960938 154.855469 22.960938 154.636719 22.84375 154.402344 C 22.675781 153.152344 22.390625 151.789062 22.160156 150.539062 C 21.925781 149.234375 21.589844 147.921875 21.476562 146.617188 C 21.476562 146.101562 21.421875 145.601562 21.644531 145.203125 C 22.765625 142.570312 30.355469 144.722656 32.484375 145.316406 C 34.964844 146 37.453125 146.695312 39.945312 147.378906 C 48.441406 149.738281 56.933594 152.097656 65.414062 154.457031 C 73.570312 156.710938 81.714844 158.980469 89.859375 161.234375 C 95.875 162.910156 104.058594 165 104.960938 172.476562 C 107.414062 194.0625 109.917969 215.667969 112.421875 237.320312 C 112.539062 238.6875 112.757812 240.785156 114.242188 241.636719 C 115.546875 242.371094 116.230469 241.804688 117.664062 241.574219 C 119.871094 241.238281 122.207031 241.1875 124.492188 241.007812 C 129.785156 240.605469 135.128906 240.21875 140.421875 239.820312 C 150.785156 239.019531 161.085938 238.285156 171.386719 237.488281 C 172.457031 237.371094 173.605469 237.320312 174.675781 237.253906 C 175.542969 237.203125 176.328125 237.152344 177.179688 237.085938 C 177.53125 237.085938 177.929688 237.035156 178.265625 237.035156 C 178.664062 236.972656 179.117188 236.753906 179.519531 237.035156 C 179.917969 237.320312 179.632812 237.769531 179.582031 238.105469 Z M 179.582031 238.105469 " fill-opacity="1" fill-rule="nonzero"/><path fill="#ef9f27" d="M 115.78125 263.910156 C 115.78125 264.425781 115.78125 264.992188 115.726562 265.507812 L 101.839844 265.726562 L 102.121094 264.824219 C 102.457031 259.941406 101.089844 254.992188 98.765625 250.503906 C 96.378906 246.007812 92.90625 241.972656 89.152344 238.285156 C 84.878906 234.253906 79.871094 230.5 73.894531 228.566406 C 68.203125 226.6875 60.171875 225.21875 54.3125 226.96875 L 54.878906 227.820312 C 53.976562 227.769531 53.007812 227.886719 52.09375 227.886719 C 49.757812 228.851562 47.550781 230.101562 45.613281 231.636719 C 44.464844 232.601562 39.519531 236.636719 39.855469 238.285156 C 39.519531 236.351562 39.003906 234.472656 38.667969 232.539062 C 38.152344 232.9375 37.585938 233.222656 37.132812 233.621094 C 37.015625 233.054688 36.898438 232.433594 36.785156 231.855469 C 35.480469 225.101562 34.164062 218.398438 32.910156 211.683594 C 40.488281 208.101562 48.96875 206.0625 57.902344 206.0625 C 89.820312 206.0625 115.78125 231.972656 115.78125 263.910156 Z M 115.78125 263.910156 " fill-opacity="1" fill-rule="nonzero"/><g clip-path="url(#76c81d53e2)"><path fill="#898796" d="M 59.113281 214.75 C 31.90625 214.121094 9.34375 235.644531 8.710938 262.816406 C 8.089844 289.984375 29.632812 312.527344 56.84375 313.144531 C 84.050781 313.777344 106.613281 292.253906 107.246094 265.082031 C 107.867188 237.898438 86.324219 215.371094 59.113281 214.75 Z M 59.113281 214.75 " fill-opacity="1" fill-rule="nonzero"/></g><path fill="#727083" d="M 28.742188 263.882812 C 28.742188 279.957031 41.792969 292.988281 57.875 292.988281 C 73.972656 292.988281 87.019531 279.957031 87.019531 263.882812 C 87.019531 247.8125 73.972656 234.78125 57.875 234.78125 C 41.792969 234.78125 28.742188 247.8125 28.742188 263.882812 Z M 28.742188 263.882812 " fill-opacity="1" fill-rule="nonzero"/><path fill="#f8c73b" d="M 137.644531 85.910156 L 51.277344 85.910156 C 49.703125 85.910156 48.425781 84.636719 48.425781 83.0625 C 48.425781 81.492188 49.703125 80.226562 51.277344 80.226562 L 137.644531 80.226562 C 139.21875 80.226562 140.484375 81.492188 140.484375 83.0625 C 140.484375 84.636719 139.21875 85.910156 137.644531 85.910156 Z M 137.644531 85.910156 " fill-opacity="1" fill-rule="nonzero"/><path fill="#727083" d="M 204.105469 169.007812 C 200.46875 170.824219 197.214844 173.390625 194.542969 176.457031 L 188.515625 157.640625 C 192.269531 156.789062 195.910156 155.886719 199.550781 154.738281 Z M 204.105469 169.007812 " fill-opacity="1" fill-rule="nonzero"/><path fill="#fde77a" d="M 227.78125 151.621094 C 226.011719 159.121094 221.289062 155.886719 218.214844 154.972656 C 214.640625 153.886719 210.652344 154.402344 206.84375 156.554688 C 206.09375 156.957031 205.359375 157.421875 204.675781 157.988281 C 201.601562 160.308594 198.867188 163.605469 195.859375 166.171875 C 192.785156 168.722656 189.199219 170.542969 186.292969 169.175781 C 184.125 168.207031 182.65625 165.65625 180.835938 164.007812 C 180.203125 163.492188 179.519531 163.039062 178.78125 162.808594 C 177.929688 162.523438 177.015625 162.523438 176.109375 162.703125 C 174.175781 163.039062 172.070312 164.175781 170.070312 165.140625 C 167.113281 166.457031 163.640625 167.136719 161.871094 164.457031 C 160.683594 162.589844 160.738281 159.738281 161.539062 156.90625 C 161.9375 155.421875 162.558594 153.953125 163.242188 152.703125 C 167.28125 145.421875 174.058594 141.617188 180.203125 140.765625 C 186.347656 139.96875 192.15625 141.617188 198.015625 142.699219 C 202.6875 143.550781 207.527344 144.117188 212.472656 143.203125 C 214.808594 142.804688 217.195312 142.070312 219.46875 141.835938 C 221.804688 141.667969 224.140625 142.070312 225.84375 143.71875 C 227.613281 145.367188 228.515625 148.488281 227.78125 151.621094 Z M 227.78125 151.621094 " fill-opacity="1" fill-rule="nonzero"/><path fill="#f8c73b" d="M 206.84375 156.554688 C 206.09375 156.957031 205.359375 157.421875 204.675781 157.988281 C 201.601562 160.308594 198.867188 163.605469 195.859375 166.171875 C 192.785156 168.722656 189.199219 170.542969 186.292969 169.175781 C 184.125 168.207031 182.65625 165.65625 180.835938 164.007812 C 180.203125 163.492188 179.519531 163.039062 178.78125 162.808594 C 177.929688 162.523438 177.015625 162.523438 176.109375 162.703125 C 174.175781 163.039062 172.070312 164.175781 170.070312 165.140625 C 167.113281 166.457031 163.640625 167.136719 161.871094 164.457031 C 160.683594 162.589844 160.738281 159.738281 161.539062 156.90625 C 163.757812 159.058594 166.882812 160.371094 169.953125 159.738281 C 172.972656 159.121094 175.878906 156.671875 178.832031 157.472656 C 182.707031 158.554688 183.558594 164.238281 187.3125 165.707031 C 189.882812 166.789062 192.785156 165.425781 194.996094 163.773438 C 197.898438 161.671875 200.519531 159.003906 203.757812 157.472656 C 204.726562 157.019531 205.757812 156.738281 206.84375 156.554688 Z M 206.84375 156.554688 " fill-opacity="1" fill-rule="nonzero"/><path fill="#727083" d="M 232.273438 256.640625 L 221.46875 260.109375 L 218.785156 251.753906 L 214.292969 237.886719 C 217.3125 235.605469 220.898438 234.136719 224.875 233.621094 L 229.882812 249.074219 Z M 232.273438 256.640625 " fill-opacity="1" fill-rule="nonzero"/><path fill="#dcd9ea" d="M 245.359375 256.640625 C 245.359375 260.273438 244.289062 263.625 242.40625 266.410156 C 239.734375 270.394531 235.523438 273.292969 230.566406 274.027344 C 229.601562 274.261719 228.632812 274.3125 227.664062 274.3125 C 217.878906 274.3125 209.914062 266.410156 209.914062 256.640625 C 209.914062 246.859375 217.878906 238.96875 227.664062 238.96875 C 237.460938 238.96875 245.359375 246.859375 245.359375 256.640625 Z M 245.359375 256.640625 " fill-opacity="1" fill-rule="nonzero"/><path fill="#c6bfe0" d="M 242.40625 266.410156 C 239.734375 270.394531 235.523438 273.292969 230.566406 274.027344 L 221.636719 261.125 C 219.414062 258.058594 220.035156 253.574219 222.941406 251.238281 C 224.140625 250.273438 225.675781 249.757812 227.210938 249.757812 C 229.433594 249.757812 231.601562 250.90625 232.90625 252.773438 Z M 242.40625 266.410156 " fill-opacity="1" fill-rule="nonzero"/><path fill="#fde77a" d="M 249.53125 288.800781 C 249.269531 289.019531 249.027344 289.1875 248.730469 289.316406 C 248.394531 289.480469 248.058594 289.558594 247.710938 289.597656 C 246.910156 289.6875 246.109375 289.519531 245.386719 289.09375 C 244.882812 288.835938 244.417969 288.425781 244.082031 287.910156 L 238.675781 280.113281 L 223.832031 258.792969 C 222.527344 256.9375 222.863281 254.28125 224.554688 252.929688 C 226.242188 251.535156 228.65625 251.921875 229.960938 253.816406 L 248.265625 280.113281 L 250.253906 282.933594 C 251.554688 284.789062 251.21875 287.445312 249.53125 288.800781 Z M 249.53125 288.800781 " fill-opacity="1" fill-rule="nonzero"/><path fill="#f8c73b" d="M 249.53125 288.800781 C 249.269531 289.019531 249.027344 289.1875 248.730469 289.316406 C 247.632812 289.390625 246.484375 289.351562 245.386719 289.09375 C 244.882812 288.835938 244.417969 288.425781 244.082031 287.910156 L 238.675781 280.113281 L 248.265625 280.113281 L 250.253906 282.933594 C 251.554688 284.789062 251.21875 287.445312 249.53125 288.800781 Z M 249.53125 288.800781 " fill-opacity="1" fill-rule="nonzero"/><path fill="#fde77a" d="M 256.433594 294.84375 L 237.628906 294.84375 C 235.730469 294.84375 234.195312 293.308594 234.195312 291.429688 L 234.195312 285.421875 C 234.195312 283.539062 235.730469 282.007812 237.628906 282.007812 L 256.433594 282.007812 C 258.332031 282.007812 259.867188 283.539062 259.867188 285.421875 L 259.867188 291.429688 C 259.867188 293.308594 258.332031 294.84375 256.433594 294.84375 Z M 256.433594 294.84375 " fill-opacity="1" fill-rule="nonzero"/><path fill="#ef9f27" d="M 253.054688 290.320312 L 241.242188 290.320312 C 240.457031 290.320312 239.808594 289.675781 239.808594 288.890625 C 239.808594 288.117188 240.457031 287.472656 241.242188 287.472656 L 253.054688 287.472656 C 253.839844 287.472656 254.472656 288.117188 254.472656 288.890625 C 254.472656 289.675781 253.839844 290.320312 253.054688 290.320312 Z M 253.054688 290.320312 " fill-opacity="1" fill-rule="nonzero"/></svg>